<svg id="Lager_1" data-name="Lager 1" xmlns="http://www.w3.org/2000/svg" viewBox="0 0 485.24 513.81"><defs><style>.cls-1{fill:gray;}</style></defs><path class="cls-1" d="M323,221.57c-13.45-10.5-23.43-7.5-29.37-16.08-1.3-1.86-2.59-4.85-3.54-11.13q-1.51-10-2.36-20.12c-.33-4-.57-8.1.83-11.85,2.57-6.92,10-10.74,17.07-12.83s14.7-3.17,20.77-7.37c3.47-2.41,6.27-5.72,9.86-7.93,4.43-2.72,9.72-3.57,14.85-4.37,4.44-.68,9-1.36,13.37-.25,6.74,1.73,11.64,7.39,15.91,12.88q8.52,10.95,16.14,22.58c5.92,9,12.32,19.08,22.69,22.16a16,16,0,0,0,9.66.06,19.41,19.41,0,0,0,5.94-3.24C449.23,172.24,458.7,158.54,469,159c6,.27,12.17,5.28,15.24,10.33a13.43,13.43,0,0,1,2,4.5c2,8.63.2,17.86-3.93,25.7s-10.44,14.34-17.52,19.65c-2.68,2-5.52,3.91-7.69,6.48-3.23,3.83-4.68,8.8-6.19,13.58a256.51,256.51,0,0,1-13.52,34c-2.86,5.91-6.4,12.15-12.49,14.61-7.69,3.12-16.3-1-23.23-5.54s-14.2-10-22.48-9.57c-7.1.32-13.19,4.83-19.59,7.92s-14.9,4.47-19.94-.53c-2-2-3.37-4.34-4.64-12-3.62-22,.71-32.39-6.63-41.68A28.27,28.27,0,0,0,323,221.57Z" transform="translate(-100.76 -70.06)"/><path class="cls-1" d="M230.34,306c-7.12-5.4-13-4.94-28.58-9.27-7.92-2.2-11.47-3.59-13.34-7-1.31-2.38-1.51-5.19-1.68-7.89-1.09-17.21-1.87-35.75,7.41-50.29,2-3.15,4.74-6.2,8.39-6.93s7.54,1.11,10.94,2.93l23.85,12.75c5,2.67,10,5.35,15.45,6.83s11.37,1.72,16.75,3.69a27.69,27.69,0,0,1,17.59,22.75c.47,4.82-.35,9.66-.56,14.49a95.42,95.42,0,0,0,1.59,19.37c1,5.87,2.12,11.76,4.5,17.21,2.7,6.2,7,12.05,7.09,18.81,0,3.31-1.26,6.93-4.21,8.44-4.36,2.22-9.67-1.13-14.46-.11-6.52,1.38-8.61,9.48-13,14.48-5.79,6.56-17.09,7.18-23.57,1.28-5.6-5.1-7-13.3-7.27-20.88-.18-5.65.69-4.91,1-17.51.24-9.59-.24-14.32-3.22-18.56A19.75,19.75,0,0,0,230.34,306Z" transform="translate(-100.76 -70.06)"/><path class="cls-1" d="M165.26,117.94c5.68-2.51,9.89.65,14.53-1.87,2.93-1.6,4-4.5,5.12-6.61,5.81-10.83,9.86-23.14,19.12-31.21a34.11,34.11,0,0,1,30.81-7.06c3.47,1,6.86,2.47,10.46,2.51,2,0,4-.42,6-.07,3.44.61,6.06,3.55,7.46,6.75s1.82,6.73,2.6,10.13a43,43,0,0,0,7,15.63c2.87,4,6.5,7.35,9.18,11.45s4.36,9.29,2.75,13.91c-1.81,5.17-7.31,8.26-12.72,9.12s-10.93,0-16.41-.3-11.3.19-15.79,3.34c-4.81,3.38-7.21,9.27-8.43,15s-1.51,11.72-3.32,17.31-5.57,11-11.19,12.76c-5.39,1.66-11.13-.37-16.55-1.95s-11.74-2.57-16.31.73c-2.43,1.76-4,4.49-6.05,6.65s-5.31,3.82-8,2.58c-3.47-1.58-3.68-6.29-4.12-10.08-1.32-11.18-9-20.51-12.56-31.17-2-6-2.13-9.18-1.45-13.22,1.4-8.35,7.24-14.42,12.18-19.54C162.05,120.12,163.36,118.78,165.26,117.94Z" transform="translate(-100.76 -70.06)"/><path class="cls-1" d="M386.17,489.32c-5.14,3.22-10.69.32-27.7-2.81-7.49-1.38-6.34-.86-7.87-1.33C338.53,481.45,332.89,468,328.77,456c-2.62-7.62-5.27-15.41-5.28-23.46,0-6.56,1.74-13,3.49-19.31,6.56-23.69,13.6-47.88,28.07-67.75,3.78-5.18,9.45-10.53,15.69-9.05,4.34,1,7.25,5.11,9,9.21s2.74,8.57,5.26,12.25c5.7,8.32,19.2,9.7,26.46,2.7,2-1.91,2-2.43,7.63-10.63,3.43-5,7.34-10.28,10.13-13.63a83.13,83.13,0,0,1,19.31-17c10.14-6.37,16.2-9.52,23.47-8.27,8.45,1.45,15.79,10.23,13.32,18.44-1.51,5-5.92,8.43-9.57,12.17-7.77,8-12.79,19.73-9.47,30.36,1.2,3.86,3.41,7.31,5.1,11a44.8,44.8,0,0,1,1.6,33.23,19.69,19.69,0,0,1-5.2,8.54c-4.53,3.94-11.11,4.14-17.11,4.14h-45c-7.19,0-15.39.46-19.92,6-4,4.93-1.68,13,1.2,24.49,3,12,6.83,18,3.56,24.67A12.12,12.12,0,0,1,386.17,489.32Z" transform="translate(-100.76 -70.06)"/><path class="cls-1" d="M447.2,123.29A21.42,21.42,0,0,1,441,143c-6.17,5.66-16.81,8.07-21,4-5.88-5.7,4.89-20.23-2.7-29-2.08-2.4-4.3-3.69-6.78-7.73-1.8-2.92-2.6-6.77-.93-9.77,1-1.79,2.72-3,4.2-4.45,4.41-4.17,6.9-10,10.85-14.6s10.65-8,16-5.21c4.2,2.21,5.89,7.28,6.86,11.93.49,2.37,2.5,9.58.55,18.16-1,4.26-2.8,8.54-1.52,14.59C446.84,122.23,447,122.21,447.2,123.29Z" transform="translate(-100.76 -70.06)"/><path class="cls-1" d="M218.09,576.67c-10.53-9.71-16.66-15.33-24.2-20.69-6.83-4.86-10.19-7.59-14.3-8.19-5.57-.82-12.05,1.36-16.42-2.2-3.39-2.75-3.8-7.75-3.32-12.08s1.56-8.83.17-13c-2.16-6.46-6.29-8.43-9.94-13.55-5.79-8.11-3.94-18.49-2.08-29,2.08-11.73,4.87-9.12,21.11-40.42a24.85,24.85,0,0,1,9.78-10.5c4.21-2.36,10-2.55,13.51.77,4.7,4.45,3.21,12.33,6,18.16,3.85,7.92,14.56,9.81,23.17,7.92s16.52-6.45,25.26-7.65a33.86,33.86,0,0,1,21.92,4.54c11.34,6.86,17.68,19.95,19.86,33,.88,5.27,1.17,10.76-.33,15.89-3.12,10.72-13.28,17.88-18.11,27.94-3.67,7.64-4,16.37-5.1,24.78-1.65,12.74-5,18.6-9.5,23-8.49,8.36-23.42,11-32.61,5.53C222.13,580.48,222.07,580.34,218.09,576.67Z" transform="translate(-100.76 -70.06)"/><path class="cls-1" d="M531.14,368c2.6-1.73,6.4,5.51,14.86,7,1.42.25,7.6-.58,19.91-2.26a14,14,0,0,0,2.1-.4c4.22-1.21,7.6-4.38,10.33-7.82A32.66,32.66,0,0,0,585.52,349c1.26-7.78.33-20.65-6.52-24-3.88-1.89-6.71.71-10.35-1.78-3.23-2.2-2.64-5.59-4.81-11.5-3-8.08-8.75-14.78-14.4-21.29-2.89-3.33-6.11-6.86-10.44-7.73a14.73,14.73,0,0,0-7.23.66,27.74,27.74,0,0,0-16.65,14.46c-3,6.47-3.45,13.86-3.17,21a15.66,15.66,0,0,1-.46,5.88c-1.25,3.54-5,5.73-6.24,9.29-.43,1.29-.63,2.83,4.34,15.65,3.24,8.37,3.88,9.18,3.91,11.86,0,5.75-2.86,7-2,11,1.24,5.81,8.86,10.76,13,9,2.57-1.09,3.87-4.79,5-8C530.75,370,530.09,368.69,531.14,368Z" transform="translate(-100.76 -70.06)"/><path class="cls-1" d="M528.39,157.58c-4.22,2.36-11-.92-14.78-4.61-4-3.93-6.36-10.69-7-14.27a13.63,13.63,0,0,0-.92-3.52,7.73,7.73,0,0,0-2.79-3c-4.3-2.82-10-2.48-14.55-4.9-5.68-3-8.38-10.86-5.36-16.54s11.52-7.7,16.5-3.62c1.55,1.26,3.12,3.11,5.09,2.75a5.24,5.24,0,0,0,2.76-2c2.58-3,2.64-4.19,4.63-5.29A5.35,5.35,0,0,1,516,102a5.5,5.5,0,0,1,3,3c2.68,5.49-2.72,10.16-.27,15.67.91,2,2.86,4.18,4.46,3.87,2.22-.42,2.87-3.21,4.3-5,2.13-2.61,6.41-2.7,9.13-.71s4,5.5,4,8.87c0,2.65-.63,5.07-2.25,9.79a96.94,96.94,0,0,1-5.89,13.58C529.65,156.73,529,157.24,528.39,157.58Z" transform="translate(-100.76 -70.06)"/><path class="cls-1" d="M466.17,467.49c18.26-3.32,37.75-21.62,37.81-37.62,0-3.75-.29-7.47,1.68-11.81,2.74-6.06,11.08-8.79,16.87-5.51,9.22,5.21,8.25,19.69,16.23,26.66,8.18,7.16,24,5,27.58,15.32,2,5.79-1.76,12-6.15,16.28s-9.73,7.93-12.26,13.51c-2.38,5.26-1.83,11.32-2.79,17a32.6,32.6,0,0,1-20,24.53c-3.79,1.46-7.93,2.23-11.27,4.55-7.47,5.17-8.52,16.12-15.1,22.38-5.78,5.5-15.19,6.17-22.34,2.62s-12.1-10.71-14.27-18.4c-1.31-4.67-1.71-9.59-3.32-14.18s-4.78-9-9.46-10.34c-2.87-.79-5.9-.31-8.87-.36a25.41,25.41,0,0,1-23.67-19.58c-2.37-11.31,4.87-23,13.81-27.44C442.58,459.22,449.31,470.57,466.17,467.49Z" transform="translate(-100.76 -70.06)"/><path class="cls-1" d="M116.17,376.31c3.57-3.56-.17-8,3.21-13.49,2-3.27,5.43-4.79,12.42-7.51,1.61-.63,3.44-1.22,5-.51s2.22,2.15,2.9,3.56q2.82,5.81,5.65,11.62a13.23,13.23,0,0,0,3.41,4.95c1.82,1.43,4.23,1.8,6.49,2.31,8.88,2,20.82,11.17,19.61,15.24-.87,3-8,.51-11.37,5-3.56,4.76,2.05,10.66.27,19.24-1.43,7-7.63,15.24-14.27,15.76-10.55.83-11.8-18.75-32.28-28.23-8-3.68-14-3.6-15.9-8.7s1.29-13,6.52-16.18C111.52,377.16,113.74,378.74,116.17,376.31Z" transform="translate(-100.76 -70.06)"/></svg>