<svg id="Lager_1" data-name="Lager 1" xmlns="http://www.w3.org/2000/svg" viewBox="0 0 371.07 279.17"><defs><style>.cls-1{fill:none;stroke:#7d93e2;stroke-miterlimit:10;stroke-width:2px;}</style></defs><path class="cls-1" d="M330.08,418.36l-6-6a27.92,27.92,0,0,1,15-10.5c8.71-2.29,15.87.79,21,3s8.72,3.76,10.5,7.5c3.66,7.7-3.77,17.11-4.5,18-6.83,8.42-17.41,8.94-19.5,9l-3.75,18.75-12.75-.75,3.75-26.25a30.13,30.13,0,0,0,19.5-7.5c2.89-2.52,4.82-4.21,4.5-6-.53-3-7.15-4.25-10.5-4.5C340.06,412.59,334,415.7,330.08,418.36Z" transform="translate(-279.02 -205.89)"/><path class="cls-1" d="M333.83,477.61a7,7,0,0,1-6-4.5,7.16,7.16,0,0,1,1.5-7.5c2.87-2.93,8.06-2.68,10.5,0a6.33,6.33,0,0,1,1.5,4.5C341.17,473.76,338,477.83,333.83,477.61Z" transform="translate(-279.02 -205.89)"/><path class="cls-1" d="M607.58,401.8l-6-6a27.73,27.73,0,0,1,15-10.5c8.7-2.3,15.87.79,21,3s8.72,3.75,10.5,7.5c3.66,7.7-3.78,17.1-4.5,18-6.83,8.41-17.41,8.93-19.5,9l-3.75,18.75-12.75-.75,3.75-26.25a30.92,30.92,0,0,0,9-1.5,30.51,30.51,0,0,0,10.5-6c2.88-2.53,4.81-4.22,4.5-6-.54-3-7.15-4.26-10.5-4.5C617.55,396,611.45,399.13,607.58,401.8Z" transform="translate(-279.02 -205.89)"/><path class="cls-1" d="M611.33,461.05a7,7,0,0,1-6-4.5,7.15,7.15,0,0,1,1.5-7.5c2.86-2.94,8.06-2.69,10.5,0a6.36,6.36,0,0,1,1.5,4.5C618.67,457.19,615.45,461.26,611.33,461.05Z" transform="translate(-279.02 -205.89)"/><path class="cls-1" d="M474.08,424.8l-6-6a27.73,27.73,0,0,1,15-10.5c8.7-2.3,15.87.79,21,3s8.72,3.75,10.5,7.5c3.66,7.7-3.78,17.1-4.5,18-6.83,8.41-17.41,8.93-19.5,9l-3.75,18.75-12.75-.75,3.75-26.25a30.92,30.92,0,0,0,9-1.5,30.51,30.51,0,0,0,10.5-6c2.88-2.53,4.81-4.22,4.5-6-.54-3-7.15-4.26-10.5-4.5C484.05,419,478,422.13,474.08,424.8Z" transform="translate(-279.02 -205.89)"/><path class="cls-1" d="M477.83,484.05a7,7,0,0,1-6-4.5,7.15,7.15,0,0,1,1.5-7.5c2.86-2.94,8.06-2.69,10.5,0a6.36,6.36,0,0,1,1.5,4.5C485.17,480.19,482,484.26,477.83,484.05Z" transform="translate(-279.02 -205.89)"/><path class="cls-1" d="M497.34,224.2l-6-6a27.73,27.73,0,0,1,15-10.5c8.7-2.3,15.87.79,21,3s8.72,3.76,10.5,7.5c3.66,7.7-3.78,17.1-4.5,18-6.83,8.41-17.41,8.94-19.5,9L510.09,264l-12.75-.75L501.09,237a30.92,30.92,0,0,0,9-1.5,30.51,30.51,0,0,0,10.5-6c2.88-2.53,4.81-4.22,4.5-6-.54-3-7.15-4.26-10.5-4.5C507.31,218.42,501.21,221.53,497.34,224.2Z" transform="translate(-279.02 -205.89)"/><path class="cls-1" d="M501.09,283.45a7,7,0,0,1-6-4.5,7.13,7.13,0,0,1,1.5-7.5c2.86-2.94,8.06-2.69,10.5,0a6.41,6.41,0,0,1,1.5,4.5C508.43,279.59,505.21,283.67,501.09,283.45Z" transform="translate(-279.02 -205.89)"/><path class="cls-1" d="M583.83,323.63l-6-6a27.82,27.82,0,0,1,15-10.5c8.71-2.3,15.87.79,21,3s8.72,3.76,10.5,7.5c3.66,7.7-3.77,17.11-4.5,18-6.83,8.41-17.41,8.94-19.5,9l-3.75,18.75-12.75-.75,3.75-26.25a30.86,30.86,0,0,0,9-1.5,30.25,30.25,0,0,0,10.5-6c2.89-2.52,4.82-4.21,4.5-6-.53-3-7.15-4.26-10.5-4.5C593.81,317.85,587.7,321,583.83,323.63Z" transform="translate(-279.02 -205.89)"/><path class="cls-1" d="M587.58,382.88a7,7,0,0,1-6-4.5,7.18,7.18,0,0,1,1.5-7.5c2.87-2.94,8.06-2.69,10.5,0a6.32,6.32,0,0,1,1.5,4.5C594.92,379,591.71,383.1,587.58,382.88Z" transform="translate(-279.02 -205.89)"/><path class="cls-1" d="M286.33,311.63l-6-6a27.82,27.82,0,0,1,15-10.5c8.71-2.3,15.87.79,21,3s8.72,3.76,10.5,7.5c3.66,7.7-3.77,17.11-4.5,18-6.83,8.41-17.41,8.94-19.5,9l-3.75,18.75-12.75-.75,3.75-26.25a30.86,30.86,0,0,0,9-1.5,30.25,30.25,0,0,0,10.5-6c2.89-2.52,4.82-4.21,4.5-6-.53-3-7.15-4.26-10.5-4.5C296.31,305.85,290.2,309,286.33,311.63Z" transform="translate(-279.02 -205.89)"/><path class="cls-1" d="M290.08,370.88a7,7,0,0,1-6-4.5,7.18,7.18,0,0,1,1.5-7.5c2.87-2.94,8.06-2.69,10.5,0a6.32,6.32,0,0,1,1.5,4.5C297.42,367,294.21,371.1,290.08,370.88Z" transform="translate(-279.02 -205.89)"/><path class="cls-1" d="M358.42,263.93l-6-6a27.73,27.73,0,0,1,15-10.5c8.7-2.3,15.87.79,21,3s8.72,3.75,10.5,7.5c3.66,7.69-3.78,17.1-4.5,18-6.83,8.41-17.41,8.93-19.5,9l-3.75,18.75-12.75-.75,3.75-26.25a31.27,31.27,0,0,0,9-1.5,30.69,30.69,0,0,0,10.5-6c2.88-2.53,4.82-4.22,4.5-6-.54-3-7.15-4.26-10.5-4.5C368.39,258.15,362.29,261.26,358.42,263.93Z" transform="translate(-279.02 -205.89)"/><path class="cls-1" d="M362.17,323.18a7,7,0,0,1-6-4.5,7.15,7.15,0,0,1,1.5-7.5c2.86-2.94,8.06-2.69,10.5,0a6.35,6.35,0,0,1,1.5,4.5C369.51,319.32,366.29,323.39,362.17,323.18Z" transform="translate(-279.02 -205.89)"/><path class="cls-1" d="M392.42,338.93l-6-6a27.73,27.73,0,0,1,15-10.5c8.7-2.3,15.87.79,21,3s8.72,3.75,10.5,7.5c3.66,7.69-3.78,17.1-4.5,18-6.83,8.41-17.41,8.93-19.5,9l-3.75,18.75-12.75-.75,3.75-26.25a31.27,31.27,0,0,0,9-1.5,30.69,30.69,0,0,0,10.5-6c2.88-2.53,4.82-4.22,4.5-6-.54-3-7.15-4.26-10.5-4.5C402.39,333.15,396.29,336.26,392.42,338.93Z" transform="translate(-279.02 -205.89)"/><path class="cls-1" d="M396.17,398.18a7,7,0,0,1-6-4.5,7.15,7.15,0,0,1,1.5-7.5c2.86-2.94,8.06-2.69,10.5,0a6.35,6.35,0,0,1,1.5,4.5C403.51,394.32,400.29,398.39,396.17,398.18Z" transform="translate(-279.02 -205.89)"/></svg>