<svg id="Lager_1" data-name="Lager 1" xmlns="http://www.w3.org/2000/svg" viewBox="0 0 290.73 230.36"><defs><style>.cls-1{fill:none;stroke:#7d93e2;stroke-miterlimit:10;stroke-width:3px;}</style></defs><path class="cls-1" d="M285.21,423.41l-9-9c2.57-3.5,9.87-12.41,22.5-15.75,13.05-3.45,23.8,1.19,31.5,4.5s13.08,5.64,15.75,11.25c5.49,11.55-5.67,25.66-6.75,27C329,454,313.09,454.82,310,454.91Q307.14,469,304.33,483l-19.12-1.13q2.81-19.68,5.62-39.37a46.49,46.49,0,0,0,13.5-2.25,45.76,45.76,0,0,0,15.75-9c4.33-3.79,7.23-6.32,6.75-9-.8-4.54-10.72-6.39-15.75-6.75C300.17,414.74,291,419.41,285.21,423.41Z" transform="translate(-274.24 -293.09)"/><path class="cls-1" d="M290.83,512.29a10.54,10.54,0,0,1-9-6.75,10.73,10.73,0,0,1,2.25-11.25c4.3-4.41,12.09-4,15.75,0a9.48,9.48,0,0,1,2.25,6.75C301.84,506.5,297,512.61,290.83,512.29Z" transform="translate(-274.24 -293.09)"/><path class="cls-1" d="M413.45,320.56l-9-9c2.57-3.5,9.88-12.42,22.5-15.75,13.06-3.45,23.8,1.18,31.5,4.5s13.08,5.64,15.75,11.25c5.49,11.55-5.66,25.66-6.75,27-10.24,12.62-26.11,13.41-29.25,13.5q-2.81,14.07-5.62,28.13l-19.13-1.13q2.82-19.68,5.63-39.37a46.62,46.62,0,0,0,13.5-2.25,45.85,45.85,0,0,0,15.75-9c4.32-3.79,7.22-6.33,6.75-9-.81-4.54-10.73-6.39-15.75-6.75C428.41,311.89,419.25,316.56,413.45,320.56Z" transform="translate(-274.24 -293.09)"/><path class="cls-1" d="M419.08,409.44a10.54,10.54,0,0,1-9-6.75,10.71,10.71,0,0,1,2.25-11.25c4.29-4.41,12.08-4,15.75,0a9.58,9.58,0,0,1,2.25,6.75C430.09,403.65,425.26,409.76,419.08,409.44Z" transform="translate(-274.24 -293.09)"/><path class="cls-1" d="M501.2,433.06l-9-9c2.57-3.5,9.88-12.42,22.5-15.75,13.06-3.45,23.8,1.18,31.5,4.5s13.08,5.64,15.75,11.25c5.49,11.55-5.66,25.66-6.75,27C545,463.68,529.09,464.47,526,464.56q-2.81,14.07-5.62,28.13l-19.13-1.13q2.82-19.68,5.63-39.37a46.62,46.62,0,0,0,13.5-2.25,45.85,45.85,0,0,0,15.75-9c4.32-3.79,7.22-6.33,6.75-9-.81-4.54-10.73-6.39-15.75-6.75C516.16,424.39,507,429.06,501.2,433.06Z" transform="translate(-274.24 -293.09)"/><path class="cls-1" d="M506.83,521.94a10.54,10.54,0,0,1-9-6.75,10.71,10.71,0,0,1,2.25-11.25c4.29-4.41,12.08-4,15.75,0a9.58,9.58,0,0,1,2.25,6.75C517.84,516.15,513,522.26,506.83,521.94Z" transform="translate(-274.24 -293.09)"/></svg>