<svg id="Lager_1" data-name="Lager 1" xmlns="http://www.w3.org/2000/svg" viewBox="0 0 193.82 153.57"><defs><style>.cls-1{fill:none;stroke:#7d93e2;stroke-miterlimit:10;stroke-width:2px;}</style></defs><path class="cls-1" d="M330.08,418.36l-6-6a27.92,27.92,0,0,1,15-10.5c8.71-2.29,15.87.79,21,3s8.72,3.76,10.5,7.5c3.66,7.7-3.77,17.11-4.5,18-6.83,8.42-17.41,8.94-19.5,9l-3.75,18.75-12.75-.75,3.75-26.25a30.13,30.13,0,0,0,19.5-7.5c2.89-2.52,4.82-4.21,4.5-6-.53-3-7.15-4.25-10.5-4.5C340.06,412.59,334,415.7,330.08,418.36Z" transform="translate(-322.77 -331.49)"/><path class="cls-1" d="M333.83,477.61a7,7,0,0,1-6-4.5,7.16,7.16,0,0,1,1.5-7.5c2.87-2.93,8.06-2.68,10.5,0a6.33,6.33,0,0,1,1.5,4.5C341.17,473.76,338,477.83,333.83,477.61Z" transform="translate(-322.77 -331.49)"/><path class="cls-1" d="M415.58,349.8l-6-6a27.73,27.73,0,0,1,15-10.5c8.7-2.3,15.87.79,21,3s8.72,3.75,10.5,7.5c3.66,7.7-3.78,17.1-4.5,18-6.83,8.41-17.41,8.93-19.5,9l-3.75,18.75-12.75-.75,3.75-26.25a30.92,30.92,0,0,0,9-1.5,30.51,30.51,0,0,0,10.5-6c2.88-2.53,4.81-4.22,4.5-6-.54-3-7.15-4.26-10.5-4.5C425.55,344,419.45,347.13,415.58,349.8Z" transform="translate(-322.77 -331.49)"/><path class="cls-1" d="M419.33,409.05a7,7,0,0,1-6-4.5,7.15,7.15,0,0,1,1.5-7.5c2.86-2.94,8.06-2.69,10.5,0a6.36,6.36,0,0,1,1.5,4.5C426.67,405.19,423.45,409.26,419.33,409.05Z" transform="translate(-322.77 -331.49)"/><path class="cls-1" d="M474.08,424.8l-6-6a27.73,27.73,0,0,1,15-10.5c8.7-2.3,15.87.79,21,3s8.72,3.75,10.5,7.5c3.66,7.7-3.78,17.1-4.5,18-6.83,8.41-17.41,8.93-19.5,9l-3.75,18.75-12.75-.75,3.75-26.25a30.92,30.92,0,0,0,9-1.5,30.51,30.51,0,0,0,10.5-6c2.88-2.53,4.81-4.22,4.5-6-.54-3-7.15-4.26-10.5-4.5C484.05,419,478,422.13,474.08,424.8Z" transform="translate(-322.77 -331.49)"/><path class="cls-1" d="M477.83,484.05a7,7,0,0,1-6-4.5,7.15,7.15,0,0,1,1.5-7.5c2.86-2.94,8.06-2.69,10.5,0a6.36,6.36,0,0,1,1.5,4.5C485.17,480.19,482,484.26,477.83,484.05Z" transform="translate(-322.77 -331.49)"/></svg>