<svg id="Lager_1" data-name="Lager 1" xmlns="http://www.w3.org/2000/svg" viewBox="0 0 431.14 264.27"><defs><style>.cls-1{fill:none;stroke:#7d93e2;stroke-miterlimit:10;stroke-width:2px;}.cls-2{fill:#7d93e2;}</style></defs><path class="cls-1" d="M907.11,258.52c-7.18-.33-11.56-10.89-12-12-5.34-13.29,4.13-26,6-28.5,2.39-3.21,5.74-7.7,10.5-7.5,3.31.15,5.95,2.91,7.5,4.5a20.4,20.4,0,0,1,4.5,7.5c.39,1.16,2.18,6.73,0,15C921.77,244.47,915.66,258.92,907.11,258.52Z" transform="translate(-796.05 -118.82)"/><path class="cls-1" d="M936.61,257c-6.71-3.62-6.21-15.88-6-21a37,37,0,0,1,8.25-21.75c2.32-2.75,5.14-6,9.75-6.75a14.34,14.34,0,0,1,9.75,2.25c8.37,5.62,10.41,22.27,3.75,33.75C956.55,253.1,943.88,261,936.61,257Z" transform="translate(-796.05 -118.82)"/><path class="cls-2" d="M907.11,258.52c4.16.2,7.73-3.12,10.53-7.38a20.7,20.7,0,0,0-3-3.12,11.12,11.12,0,0,0-7.5-3h0a6.68,6.68,0,0,0-4.5,1.5c-3,2-4.44,3-4.5,4.5a3.3,3.3,0,0,0,.59,1.95C900.74,255.74,903.59,258.36,907.11,258.52Z" transform="translate(-796.05 -118.82)"/><path class="cls-2" d="M953.11,251c-1-2.26-2.88-3.48-4.5-4.5a10.5,10.5,0,0,0-3-1.5c-4-1-7.72,2-9,3a15.8,15.8,0,0,0-4,4.67,9.69,9.69,0,0,0,4,4.33c4.61,2.53,11.45.57,17.08-3.54A7.61,7.61,0,0,0,953.11,251Z" transform="translate(-796.05 -118.82)"/><path class="cls-1" d="M996.81,197c-7.17-.33-11.55-10.89-12-12-5.33-13.29,4.14-26,6-28.5,2.4-3.22,5.74-7.7,10.5-7.5,3.31.14,6,2.91,7.5,4.5a20.16,20.16,0,0,1,4.5,7.5c.39,1.15,2.18,6.72,0,15C1011.48,182.92,1005.36,197.37,996.81,197Z" transform="translate(-796.05 -118.82)"/><path class="cls-1" d="M1026.31,195.47c-6.71-3.63-6.21-15.89-6-21a37,37,0,0,1,8.25-21.75c2.33-2.75,5.15-6,9.75-6.75a14.34,14.34,0,0,1,9.75,2.25c8.38,5.62,10.41,22.27,3.75,33.75C1046.26,191.55,1033.58,199.4,1026.31,195.47Z" transform="translate(-796.05 -118.82)"/><path class="cls-2" d="M996.81,197c4.16.19,7.74-3.12,10.53-7.38a20.23,20.23,0,0,0-3-3.12,11.1,11.1,0,0,0-7.5-3h0a6.66,6.66,0,0,0-4.5,1.5c-2.95,2-4.43,2.95-4.5,4.5a3.28,3.28,0,0,0,.6,1.95C990.45,194.18,993.29,196.81,996.81,197Z" transform="translate(-796.05 -118.82)"/><path class="cls-2" d="M1042.81,189.47a10.28,10.28,0,0,0-4.5-4.5,10,10,0,0,0-3-1.5c-4-1-7.71,2-9,3a15.62,15.62,0,0,0-4,4.67,9.72,9.72,0,0,0,4,4.33c4.62,2.53,11.45.56,17.08-3.54A7.56,7.56,0,0,0,1042.81,189.47Z" transform="translate(-796.05 -118.82)"/><path class="cls-1" d="M1032.81,300c-7.17-.33-11.55-10.89-12-12-5.33-13.29,4.14-26,6-28.5,2.4-3.22,5.74-7.7,10.5-7.5,3.31.14,6,2.91,7.5,4.5a20.16,20.16,0,0,1,4.5,7.5c.39,1.15,2.18,6.72,0,15C1047.48,285.92,1041.36,300.37,1032.81,300Z" transform="translate(-796.05 -118.82)"/><path class="cls-1" d="M1062.31,298.47c-6.71-3.63-6.21-15.89-6-21a37,37,0,0,1,8.25-21.75c2.33-2.75,5.15-6,9.75-6.75a14.34,14.34,0,0,1,9.75,2.25c8.38,5.62,10.41,22.27,3.75,33.75C1082.26,294.55,1069.58,302.4,1062.31,298.47Z" transform="translate(-796.05 -118.82)"/><path class="cls-2" d="M1032.81,300c4.16.19,7.74-3.12,10.53-7.38a20.23,20.23,0,0,0-3-3.12,11.1,11.1,0,0,0-7.5-3h0a6.66,6.66,0,0,0-4.5,1.5c-3,2-4.43,2.95-4.5,4.5a3.28,3.28,0,0,0,.6,1.95C1026.45,297.18,1029.29,299.81,1032.81,300Z" transform="translate(-796.05 -118.82)"/><path class="cls-2" d="M1078.81,292.47a10.28,10.28,0,0,0-4.5-4.5,10,10,0,0,0-3-1.5c-4-1-7.71,2-9,3a15.62,15.62,0,0,0-4,4.67,9.72,9.72,0,0,0,4,4.33c4.62,2.53,11.45.56,17.08-3.54A7.56,7.56,0,0,0,1078.81,292.47Z" transform="translate(-796.05 -118.82)"/><path class="cls-1" d="M838.81,171c-7.17-.33-11.55-10.89-12-12-5.33-13.29,4.14-26,6-28.5,2.4-3.22,5.74-7.7,10.5-7.5,3.31.14,6,2.91,7.5,4.5a20.16,20.16,0,0,1,4.5,7.5c.39,1.15,2.18,6.72,0,15C853.48,156.92,847.36,171.37,838.81,171Z" transform="translate(-796.05 -118.82)"/><path class="cls-1" d="M868.31,169.47c-6.71-3.63-6.21-15.89-6-21a37,37,0,0,1,8.25-21.75c2.33-2.75,5.15-6,9.75-6.75a14.34,14.34,0,0,1,9.75,2.25c8.38,5.62,10.41,22.27,3.75,33.75C888.26,165.55,875.58,173.4,868.31,169.47Z" transform="translate(-796.05 -118.82)"/><path class="cls-2" d="M838.81,171c4.16.19,7.74-3.12,10.53-7.38a20.23,20.23,0,0,0-3-3.12,11.1,11.1,0,0,0-7.5-3h0a6.66,6.66,0,0,0-4.5,1.5c-2.95,2-4.43,2.95-4.5,4.5a3.28,3.28,0,0,0,.6,1.95C832.45,168.18,835.29,170.81,838.81,171Z" transform="translate(-796.05 -118.82)"/><path class="cls-2" d="M884.81,163.47a10.28,10.28,0,0,0-4.5-4.5,10,10,0,0,0-3-1.5c-4-1-7.71,2-9,3a15.62,15.62,0,0,0-4,4.67,9.72,9.72,0,0,0,4,4.33c4.62,2.53,11.45.56,17.08-3.54A7.56,7.56,0,0,0,884.81,163.47Z" transform="translate(-796.05 -118.82)"/><path class="cls-1" d="M810.66,316.52c-7.18-.33-11.56-10.89-12-12-5.34-13.3,4.13-26,6-28.5,2.39-3.22,5.74-7.71,10.5-7.5,3.31.14,6,2.9,7.5,4.5a20.2,20.2,0,0,1,4.5,7.5c.39,1.15,2.18,6.72,0,15C825.32,302.47,819.21,316.91,810.66,316.52Z" transform="translate(-796.05 -118.82)"/><path class="cls-1" d="M840.16,315c-6.71-3.63-6.21-15.89-6-21,.09-2.32.73-12.86,8.25-21.75,2.32-2.76,5.14-6,9.75-6.75a14.23,14.23,0,0,1,9.75,2.25c8.37,5.61,10.41,22.26,3.75,33.75C860.1,311.09,847.43,319,840.16,315Z" transform="translate(-796.05 -118.82)"/><path class="cls-2" d="M810.66,316.52c4.16.19,7.73-3.13,10.53-7.39a20.09,20.09,0,0,0-3-3.11,11,11,0,0,0-7.5-3h0a6.58,6.58,0,0,0-4.5,1.5c-2.95,2-4.44,3-4.5,4.5a3.29,3.29,0,0,0,.59,1.94C804.29,313.73,807.14,316.35,810.66,316.52Z" transform="translate(-796.05 -118.82)"/><path class="cls-2" d="M856.66,309c-1-2.27-2.88-3.49-4.5-4.5a10,10,0,0,0-3-1.5c-4-1-7.72,2-9,3a15.67,15.67,0,0,0-4,4.66,9.77,9.77,0,0,0,4,4.34c4.61,2.52,11.45.56,17.08-3.55A7.51,7.51,0,0,0,856.66,309Z" transform="translate(-796.05 -118.82)"/><path class="cls-1" d="M1131.15,183c-7.18-.33-11.56-10.89-12-12-5.34-13.29,4.13-26,6-28.5,2.39-3.22,5.74-7.7,10.5-7.5,3.31.14,5.94,2.91,7.5,4.5a20.2,20.2,0,0,1,4.5,7.5c.39,1.15,2.18,6.72,0,15C1145.81,168.9,1139.7,183.34,1131.15,183Z" transform="translate(-796.05 -118.82)"/><path class="cls-1" d="M1160.65,181.45c-6.71-3.63-6.21-15.89-6-21a37,37,0,0,1,8.25-21.75c2.32-2.75,5.14-6,9.75-6.75a14.34,14.34,0,0,1,9.75,2.25c8.37,5.62,10.41,22.27,3.75,33.75C1180.59,177.53,1167.92,185.38,1160.65,181.45Z" transform="translate(-796.05 -118.82)"/><path class="cls-2" d="M1131.15,183c4.15.19,7.73-3.13,10.53-7.38a20.7,20.7,0,0,0-3-3.12,11.12,11.12,0,0,0-7.5-3h0a6.63,6.63,0,0,0-4.5,1.5c-3,2-4.44,3-4.5,4.5a3.35,3.35,0,0,0,.59,2C1124.78,180.16,1127.63,182.79,1131.15,183Z" transform="translate(-796.05 -118.82)"/><path class="cls-2" d="M1177.15,175.45c-1-2.27-2.88-3.49-4.5-4.5a10,10,0,0,0-3-1.5c-4-1-7.72,2-9,3a15.79,15.79,0,0,0-4,4.66,9.72,9.72,0,0,0,4,4.34c4.61,2.52,11.45.56,17.08-3.54A7.56,7.56,0,0,0,1177.15,175.45Z" transform="translate(-796.05 -118.82)"/><path class="cls-1" d="M963.64,382.08c-7.17-.33-11.55-10.89-12-12-5.33-13.3,4.14-26,6-28.5,2.4-3.22,5.74-7.71,10.5-7.5,3.31.14,6,2.9,7.5,4.5a20.06,20.06,0,0,1,4.5,7.5c.39,1.15,2.18,6.72,0,15C978.31,368,972.19,382.47,963.64,382.08Z" transform="translate(-796.05 -118.82)"/><path class="cls-1" d="M993.14,380.58c-6.71-3.63-6.21-15.89-6-21,.09-2.32.73-12.86,8.25-21.75,2.33-2.76,5.15-6,9.75-6.75a14.23,14.23,0,0,1,9.75,2.25c8.38,5.61,10.41,22.26,3.75,33.75C1013.09,376.65,1000.41,384.51,993.14,380.58Z" transform="translate(-796.05 -118.82)"/><path class="cls-2" d="M963.64,382.08c4.16.19,7.74-3.13,10.53-7.39a19.65,19.65,0,0,0-3-3.11,11,11,0,0,0-7.5-3h0a6.61,6.61,0,0,0-4.5,1.5c-2.95,2-4.43,2.95-4.5,4.5a3.22,3.22,0,0,0,.6,1.94C957.28,379.29,960.12,381.91,963.64,382.08Z" transform="translate(-796.05 -118.82)"/><path class="cls-2" d="M1009.64,374.58c-1-2.27-2.88-3.49-4.5-4.5a10,10,0,0,0-3-1.5c-4-1-7.71,2-9,3a15.6,15.6,0,0,0-4,4.66,9.75,9.75,0,0,0,4,4.34c4.62,2.52,11.45.56,17.08-3.55A7.51,7.51,0,0,0,1009.64,374.58Z" transform="translate(-796.05 -118.82)"/><path class="cls-1" d="M1167.22,369.32c-7.17-.33-11.56-10.89-12-12-5.33-13.29,4.14-26,6-28.5,2.4-3.21,5.74-7.7,10.5-7.5,3.31.15,6,2.91,7.5,4.5a20.26,20.26,0,0,1,4.5,7.5c.39,1.16,2.18,6.73,0,15C1181.89,355.27,1175.77,369.72,1167.22,369.32Z" transform="translate(-796.05 -118.82)"/><path class="cls-1" d="M1196.72,367.82c-6.71-3.62-6.21-15.88-6-21a37,37,0,0,1,8.25-21.75c2.33-2.75,5.15-6,9.75-6.75a14.34,14.34,0,0,1,9.75,2.25c8.38,5.62,10.41,22.27,3.75,33.75C1216.67,363.9,1204,371.75,1196.72,367.82Z" transform="translate(-796.05 -118.82)"/><path class="cls-2" d="M1167.22,369.32c4.16.2,7.74-3.12,10.53-7.38a20.23,20.23,0,0,0-3-3.12,11.1,11.1,0,0,0-7.5-3h0a6.71,6.71,0,0,0-4.5,1.5c-3,2-4.43,3-4.5,4.5a3.23,3.23,0,0,0,.6,1.95C1160.86,366.54,1163.7,369.16,1167.22,369.32Z" transform="translate(-796.05 -118.82)"/><path class="cls-2" d="M1213.22,361.82c-1-2.26-2.88-3.48-4.5-4.5a10.5,10.5,0,0,0-3-1.5c-4-1-7.71,2-9,3a15.74,15.74,0,0,0-4,4.67,9.67,9.67,0,0,0,4,4.33c4.62,2.53,11.45.57,17.08-3.54A7.61,7.61,0,0,0,1213.22,361.82Z" transform="translate(-796.05 -118.82)"/></svg>