<svg id="Lager_1" data-name="Lager 1" xmlns="http://www.w3.org/2000/svg" viewBox="0 0 671.42 475.18"><defs><style>.cls-1{fill:#7d93e2;}</style></defs><path class="cls-1" d="M729.56,261.6c-1.25-.14-2.18-2.83-2.55-3.76-.55-1.39-1-2.82-1.39-4.25-.73-2.5-1.43-5-2.12-7.51-1.82-6.65-3.56-13.31-5.29-20q-5.52-21.36-10.78-42.8-1.66-6.71-3.31-13.41l-1.45,1.89,60.55-.34-1.44-1.9q-5.17,17.22-10.49,34.39c-4.27,13.73-8.57,27.47-13.32,41-1,2.72-1.93,5.44-3,8.13a41.68,41.68,0,0,1-2.41,5.31c-.56,1-1.65,3.22-3,3.2a1.5,1.5,0,0,0,0,3c3.47,0,5.5-4.21,6.73-6.87s2.21-5.41,3.21-8.15c2.23-6.15,4.3-12.36,6.33-18.58,4.72-14.44,9.22-29,13.65-43.49q2.61-8.58,5.19-17.18a1.52,1.52,0,0,0-1.45-1.9l-60.55.34a1.52,1.52,0,0,0-1.44,1.9q3.93,16,7.95,32.05c3.67,14.63,7.35,29.27,11.34,43.82.77,2.84,1.56,5.67,2.4,8.5,1,3.4,2.4,9.07,6.64,9.56C731.47,264.82,731.46,261.82,729.56,261.6Z" transform="translate(-467.9 -119.68)"/><path class="cls-1" d="M715.4,278.05c-3.55,5.54-4,14.37,1.53,18.84a17.08,17.08,0,0,0,16.54,2.28c5.52-2.24,8.08-7.67,7.8-13.43-.26-5.26-2.51-11.08-7-14.12-6.49-4.36-15,.84-18.85,6.43-1.09,1.6,1.51,3.1,2.59,1.51,2.66-3.9,8.86-8.3,13.76-5.92,3.82,1.85,5.81,6.6,6.38,10.57.59,4.15-.31,9-4.1,11.34a14,14,0,0,1-13.49.16,8.64,8.64,0,0,1-4.6-6.47,13.76,13.76,0,0,1,2-9.68C719,277.93,716.44,276.42,715.4,278.05Z" transform="translate(-467.9 -119.68)"/><path class="cls-1" d="M623.6,382.05c-1.24-.14-2.18-2.83-2.55-3.76-.54-1.39-1-2.83-1.38-4.26-.74-2.49-1.44-5-2.12-7.5-1.83-6.65-3.57-13.32-5.29-20q-5.52-21.37-10.79-42.8-1.66-6.71-3.3-13.42l-1.45,1.9,60.55-.34-1.45-1.9q-5.16,17.22-10.49,34.39c-4.27,13.73-8.56,27.47-13.32,41-1,2.72-1.93,5.44-3,8.13a40.22,40.22,0,0,1-2.41,5.31c-.56,1-1.65,3.21-3,3.2a1.5,1.5,0,0,0,0,3c3.48,0,5.5-4.21,6.73-6.87s2.22-5.41,3.21-8.15c2.23-6.15,4.3-12.37,6.34-18.59,4.72-14.43,9.21-28.95,13.64-43.48q2.61-8.58,5.2-17.18a1.51,1.51,0,0,0-1.45-1.9l-60.55.34a1.52,1.52,0,0,0-1.45,1.9q3.93,16,8,32.05c3.67,14.63,7.36,29.27,11.34,43.82.78,2.84,1.57,5.67,2.41,8.49,1,3.41,2.4,9.08,6.63,9.57C625.52,385.27,625.5,382.27,623.6,382.05Z" transform="translate(-467.9 -119.68)"/><path class="cls-1" d="M609.44,398.5c-3.55,5.53-4,14.37,1.53,18.84a17.09,17.09,0,0,0,16.54,2.28c5.53-2.24,8.08-7.67,7.8-13.43-.25-5.26-2.5-11.08-7-14.12-6.49-4.37-15,.84-18.85,6.43-1.09,1.59,1.51,3.1,2.59,1.51,2.66-3.9,8.86-8.3,13.76-5.93,3.82,1.86,5.81,6.61,6.38,10.58.6,4.15-.3,9-4.1,11.34s-9.48,2.32-13.49.16a8.66,8.66,0,0,1-4.6-6.47,13.8,13.8,0,0,1,2-9.68C613.08,398.38,610.48,396.87,609.44,398.5Z" transform="translate(-467.9 -119.68)"/><path class="cls-1" d="M716.6,505.05c-1.24-.14-2.18-2.83-2.55-3.76-.54-1.39-1-2.83-1.38-4.26-.74-2.49-1.44-5-2.12-7.5-1.83-6.65-3.57-13.32-5.29-20q-5.52-21.37-10.79-42.8-1.66-6.71-3.3-13.42l-1.45,1.9,60.55-.34-1.45-1.9q-5.16,17.22-10.49,34.39c-4.27,13.73-8.56,27.47-13.32,41-1,2.72-1.93,5.44-3,8.13a40.22,40.22,0,0,1-2.41,5.31c-.56,1-1.65,3.21-3,3.2a1.5,1.5,0,0,0,0,3c3.48,0,5.5-4.21,6.73-6.87s2.22-5.41,3.21-8.15c2.23-6.15,4.3-12.37,6.34-18.59,4.72-14.43,9.21-28.95,13.64-43.48q2.61-8.58,5.2-17.18a1.51,1.51,0,0,0-1.45-1.9l-60.55.34a1.52,1.52,0,0,0-1.45,1.9q3.93,16,8,32.05c3.67,14.63,7.36,29.27,11.34,43.82.78,2.84,1.57,5.67,2.41,8.49,1,3.41,2.4,9.08,6.63,9.57C718.52,508.27,718.5,505.27,716.6,505.05Z" transform="translate(-467.9 -119.68)"/><path class="cls-1" d="M702.44,521.5c-3.55,5.53-4,14.37,1.53,18.84a17.09,17.09,0,0,0,16.54,2.28c5.53-2.24,8.08-7.67,7.8-13.43-.25-5.26-2.5-11.08-7-14.12-6.49-4.37-15,.84-18.85,6.43-1.09,1.59,1.51,3.1,2.59,1.51,2.66-3.9,8.86-8.3,13.76-5.93,3.82,1.86,5.81,6.61,6.38,10.58.6,4.15-.3,9-4.1,11.34s-9.48,2.32-13.49.16a8.66,8.66,0,0,1-4.6-6.47,13.8,13.8,0,0,1,2-9.68C706.08,521.38,703.48,519.87,702.44,521.5Z" transform="translate(-467.9 -119.68)"/><path class="cls-1" d="M791.6,335.05c-1.24-.14-2.18-2.83-2.55-3.76-.54-1.39-1-2.83-1.38-4.26-.74-2.49-1.44-5-2.12-7.5-1.83-6.65-3.57-13.32-5.29-20q-5.52-21.37-10.79-42.8-1.66-6.7-3.3-13.42l-1.45,1.9,60.55-.34-1.45-1.9q-5.16,17.22-10.49,34.39c-4.27,13.73-8.56,27.47-13.32,41-1,2.72-1.93,5.44-3,8.13a40.22,40.22,0,0,1-2.41,5.31c-.56,1-1.65,3.21-3,3.2a1.5,1.5,0,0,0,0,3c3.48,0,5.5-4.21,6.73-6.87s2.22-5.41,3.21-8.15c2.23-6.15,4.3-12.37,6.34-18.59,4.72-14.43,9.21-28.95,13.64-43.48q2.61-8.58,5.2-17.18a1.51,1.51,0,0,0-1.45-1.9l-60.55.34a1.52,1.52,0,0,0-1.45,1.9q3.93,16,8,32.05c3.67,14.63,7.36,29.27,11.34,43.82.78,2.84,1.57,5.67,2.41,8.49,1,3.41,2.4,9.08,6.63,9.57C793.52,338.27,793.5,335.27,791.6,335.05Z" transform="translate(-467.9 -119.68)"/><path class="cls-1" d="M777.44,351.5c-3.55,5.53-4,14.37,1.53,18.84a17.09,17.09,0,0,0,16.54,2.28c5.53-2.24,8.08-7.67,7.8-13.43-.25-5.26-2.5-11.08-7-14.12-6.49-4.37-15,.84-18.85,6.43-1.09,1.59,1.51,3.1,2.59,1.51,2.66-3.9,8.86-8.3,13.76-5.93,3.82,1.86,5.81,6.61,6.38,10.58.6,4.15-.3,9-4.1,11.34s-9.48,2.32-13.49.16a8.66,8.66,0,0,1-4.6-6.47,13.8,13.8,0,0,1,2-9.68C781.08,351.38,778.48,349.87,777.44,351.5Z" transform="translate(-467.9 -119.68)"/><path class="cls-1" d="M903.6,419.05c-1.24-.14-2.18-2.83-2.55-3.76-.54-1.39-1-2.83-1.38-4.26-.74-2.49-1.44-5-2.12-7.5-1.83-6.65-3.57-13.32-5.29-20q-5.52-21.37-10.79-42.8-1.66-6.71-3.3-13.42l-1.45,1.9,60.55-.34-1.45-1.9q-5.16,17.22-10.49,34.39c-4.27,13.73-8.56,27.47-13.32,41-1,2.72-1.93,5.44-3,8.13a40.22,40.22,0,0,1-2.41,5.31c-.56,1-1.65,3.21-3,3.2a1.5,1.5,0,0,0,0,3c3.48,0,5.5-4.21,6.73-6.87s2.22-5.41,3.21-8.15c2.23-6.15,4.3-12.37,6.34-18.59,4.72-14.43,9.21-28.95,13.64-43.48q2.61-8.58,5.2-17.18a1.51,1.51,0,0,0-1.45-1.9l-60.55.34a1.52,1.52,0,0,0-1.45,1.9q3.93,16,8,32.05c3.67,14.63,7.36,29.27,11.34,43.82.78,2.84,1.57,5.67,2.41,8.49,1,3.41,2.4,9.08,6.63,9.57C905.52,422.27,905.5,419.27,903.6,419.05Z" transform="translate(-467.9 -119.68)"/><path class="cls-1" d="M889.44,435.5c-3.55,5.53-4,14.37,1.53,18.84a17.09,17.09,0,0,0,16.54,2.28c5.53-2.24,8.08-7.67,7.8-13.43-.25-5.26-2.5-11.08-7-14.12-6.49-4.37-15,.84-18.85,6.43-1.09,1.59,1.51,3.1,2.59,1.51,2.66-3.9,8.86-8.3,13.76-5.93,3.82,1.86,5.81,6.61,6.38,10.58.6,4.15-.3,9-4.1,11.34s-9.48,2.32-13.49.16a8.66,8.66,0,0,1-4.6-6.47,13.8,13.8,0,0,1,2-9.68C893.08,435.38,890.48,433.87,889.44,435.5Z" transform="translate(-467.9 -119.68)"/><path class="cls-1" d="M959.15,290.8c-1.25-.14-2.18-2.83-2.55-3.76-.55-1.39-1-2.83-1.39-4.26-.73-2.49-1.43-5-2.12-7.5-1.82-6.65-3.56-13.32-5.29-20q-5.52-21.37-10.78-42.8-1.66-6.7-3.31-13.42l-1.44,1.9,60.54-.34-1.44-1.9Q986.2,216,980.88,233.12c-4.27,13.73-8.57,27.47-13.32,41-1,2.72-1.93,5.44-3,8.13a43,43,0,0,1-2.41,5.31c-.56,1-1.65,3.21-3,3.2a1.5,1.5,0,0,0,0,3c3.47,0,5.5-4.21,6.73-6.87s2.21-5.41,3.21-8.15c2.23-6.15,4.3-12.37,6.33-18.59,4.72-14.43,9.22-28.95,13.65-43.48q2.61-8.58,5.19-17.18a1.51,1.51,0,0,0-1.45-1.9l-60.54.34a1.52,1.52,0,0,0-1.45,1.9q3.93,16,7.95,32c3.67,14.63,7.35,29.26,11.34,43.82.77,2.84,1.56,5.67,2.4,8.49,1,3.41,2.41,9.08,6.64,9.57C961.06,294,961.05,291,959.15,290.8Z" transform="translate(-467.9 -119.68)"/><path class="cls-1" d="M945,307.24c-3.55,5.54-4,14.38,1.53,18.85a17.08,17.08,0,0,0,16.54,2.28c5.52-2.24,8.08-7.67,7.8-13.43-.26-5.26-2.51-11.08-7-14.12-6.49-4.37-15.05.84-18.85,6.42-1.09,1.6,1.51,3.11,2.59,1.52,2.66-3.9,8.86-8.3,13.76-5.93,3.82,1.86,5.81,6.61,6.38,10.58.59,4.15-.31,9-4.1,11.34a14,14,0,0,1-13.49.16,8.66,8.66,0,0,1-4.6-6.47,13.75,13.75,0,0,1,2.05-9.68C948.62,307.13,946,305.62,945,307.24Z" transform="translate(-467.9 -119.68)"/><path class="cls-1" d="M1034.15,455.8c-1.25-.14-2.18-2.83-2.55-3.76-.55-1.39-1-2.83-1.39-4.26-.73-2.49-1.43-5-2.12-7.5-1.82-6.65-3.56-13.32-5.29-20q-5.52-21.37-10.78-42.8-1.66-6.71-3.31-13.42l-1.44,1.9,60.54-.34-1.44-1.9q-5.17,17.22-10.49,34.39c-4.27,13.73-8.57,27.47-13.32,41-1,2.72-1.93,5.44-3,8.13a43,43,0,0,1-2.41,5.31c-.56,1-1.65,3.21-3,3.2a1.5,1.5,0,0,0,0,3c3.47,0,5.5-4.21,6.73-6.87s2.21-5.41,3.21-8.15c2.23-6.15,4.3-12.37,6.33-18.59,4.72-14.43,9.22-28.95,13.65-43.48q2.61-8.58,5.19-17.18a1.51,1.51,0,0,0-1.45-1.9l-60.54.34a1.52,1.52,0,0,0-1.45,1.9q3.93,16,7.95,32.05c3.67,14.63,7.35,29.26,11.34,43.82.77,2.84,1.56,5.67,2.4,8.49,1,3.41,2.41,9.08,6.64,9.57C1036.06,459,1036.05,456,1034.15,455.8Z" transform="translate(-467.9 -119.68)"/><path class="cls-1" d="M1020,472.24c-3.55,5.54-4,14.38,1.53,18.85a17.08,17.08,0,0,0,16.54,2.28c5.52-2.24,8.08-7.67,7.8-13.43-.26-5.26-2.51-11.08-7-14.12-6.49-4.37-15,.84-18.85,6.42-1.09,1.6,1.51,3.11,2.59,1.52,2.66-3.9,8.86-8.3,13.76-5.93,3.82,1.86,5.81,6.61,6.38,10.58.59,4.15-.31,9-4.1,11.34a14,14,0,0,1-13.49.16,8.66,8.66,0,0,1-4.6-6.47,13.75,13.75,0,0,1,2.05-9.68C1023.62,472.13,1021,470.62,1020,472.24Z" transform="translate(-467.9 -119.68)"/><path class="cls-1" d="M1104.15,276.8c-1.25-.14-2.18-2.83-2.55-3.76-.55-1.39-1-2.83-1.39-4.26-.73-2.49-1.43-5-2.12-7.5-1.82-6.65-3.56-13.32-5.29-20q-5.52-21.37-10.78-42.8-1.66-6.7-3.31-13.42l-1.44,1.9,60.54-.34-1.44-1.9q-5.17,17.22-10.49,34.39c-4.27,13.73-8.57,27.47-13.32,41-1,2.72-1.93,5.44-3,8.13a43,43,0,0,1-2.41,5.31c-.56,1-1.65,3.21-3,3.2a1.5,1.5,0,0,0,0,3c3.47,0,5.5-4.21,6.73-6.87s2.21-5.41,3.21-8.15c2.23-6.15,4.3-12.37,6.33-18.59,4.72-14.43,9.22-28.95,13.65-43.48q2.61-8.58,5.19-17.18a1.51,1.51,0,0,0-1.45-1.9l-60.54.34a1.52,1.52,0,0,0-1.45,1.9q3.93,16,8,32c3.67,14.63,7.35,29.26,11.34,43.82.77,2.84,1.56,5.67,2.4,8.49,1,3.41,2.41,9.08,6.64,9.57C1106.06,280,1106.05,277,1104.15,276.8Z" transform="translate(-467.9 -119.68)"/><path class="cls-1" d="M1090,293.24c-3.55,5.54-4,14.38,1.53,18.85a17.08,17.08,0,0,0,16.54,2.28c5.52-2.24,8.08-7.67,7.8-13.43-.26-5.26-2.51-11.08-7-14.12-6.49-4.37-15,.84-18.85,6.42-1.09,1.6,1.51,3.11,2.59,1.52,2.66-3.9,8.86-8.3,13.76-5.93,3.82,1.86,5.81,6.61,6.38,10.58.59,4.15-.31,9-4.1,11.34a14,14,0,0,1-13.49.16,8.66,8.66,0,0,1-4.6-6.47,13.75,13.75,0,0,1,2-9.68C1093.62,293.13,1091,291.62,1090,293.24Z" transform="translate(-467.9 -119.68)"/><path class="cls-1" d="M898.15,225.8c-1.25-.14-2.18-2.83-2.55-3.76-.55-1.39-1-2.83-1.39-4.26-.73-2.49-1.43-5-2.12-7.5-1.82-6.65-3.56-13.32-5.29-20q-5.52-21.37-10.78-42.8-1.66-6.7-3.31-13.42l-1.44,1.9,60.54-.34-1.44-1.9Q925.2,151,919.88,168.12c-4.27,13.73-8.57,27.47-13.32,41-1,2.72-1.93,5.44-3,8.13a43,43,0,0,1-2.41,5.31c-.56,1-1.65,3.21-3,3.2a1.5,1.5,0,0,0,0,3c3.47,0,5.5-4.21,6.73-6.87s2.21-5.41,3.21-8.15c2.23-6.15,4.3-12.37,6.33-18.59,4.72-14.43,9.22-28.95,13.65-43.48q2.61-8.58,5.19-17.18a1.51,1.51,0,0,0-1.45-1.9l-60.54.34a1.52,1.52,0,0,0-1.45,1.9q3.93,16,7.95,32c3.67,14.63,7.35,29.26,11.34,43.82.77,2.84,1.56,5.67,2.4,8.49,1,3.41,2.41,9.08,6.64,9.57C900.06,229,900.05,226,898.15,225.8Z" transform="translate(-467.9 -119.68)"/><path class="cls-1" d="M884,242.24c-3.55,5.54-4,14.38,1.53,18.85a17.08,17.08,0,0,0,16.54,2.28c5.52-2.24,8.08-7.67,7.8-13.43-.26-5.26-2.51-11.08-7-14.12-6.49-4.37-15.05.84-18.85,6.42-1.09,1.6,1.51,3.11,2.59,1.52,2.66-3.9,8.86-8.3,13.76-5.93,3.82,1.86,5.81,6.61,6.38,10.58.59,4.15-.31,9-4.1,11.34a14,14,0,0,1-13.49.16,8.66,8.66,0,0,1-4.6-6.47,13.75,13.75,0,0,1,2.05-9.68C887.62,242.13,885,240.62,884,242.24Z" transform="translate(-467.9 -119.68)"/><path class="cls-1" d="M821.38,556.12c-1.24-.15-2.18-2.83-2.55-3.76-.54-1.39-1-2.83-1.38-4.26-.74-2.49-1.44-5-2.12-7.5-1.83-6.65-3.57-13.32-5.29-20q-5.52-21.37-10.79-42.8-1.66-6.71-3.31-13.42l-1.44,1.9,60.55-.34-1.45-1.9q-5.16,17.22-10.49,34.39c-4.27,13.73-8.56,27.46-13.32,41-.95,2.72-1.93,5.44-3,8.13a40.22,40.22,0,0,1-2.41,5.31c-.56,1-1.65,3.21-3,3.2a1.5,1.5,0,0,0,0,3c3.48,0,5.5-4.21,6.73-6.88s2.22-5.4,3.21-8.14c2.23-6.16,4.3-12.37,6.34-18.59,4.72-14.44,9.21-28.95,13.64-43.48q2.61-8.59,5.19-17.19a1.5,1.5,0,0,0-1.44-1.89l-60.55.34a1.52,1.52,0,0,0-1.45,1.9q3.93,16,8,32c3.67,14.64,7.36,29.27,11.34,43.82.78,2.84,1.57,5.68,2.41,8.5,1,3.4,2.4,9.08,6.63,9.57C823.3,559.34,823.28,556.34,821.38,556.12Z" transform="translate(-467.9 -119.68)"/><path class="cls-1" d="M807.22,572.56c-3.55,5.54-4,14.38,1.53,18.85a17.11,17.11,0,0,0,16.54,2.28c5.52-2.24,8.08-7.67,7.8-13.44-.25-5.26-2.51-11.07-7-14.11-6.49-4.37-15,.84-18.85,6.42-1.09,1.6,1.51,3.1,2.59,1.52,2.66-3.91,8.86-8.31,13.76-5.93,3.82,1.86,5.81,6.6,6.38,10.58.6,4.15-.31,9-4.1,11.34s-9.48,2.31-13.49.16a8.66,8.66,0,0,1-4.6-6.47,13.8,13.8,0,0,1,2-9.68C810.86,572.45,808.26,570.94,807.22,572.56Z" transform="translate(-467.9 -119.68)"/><path class="cls-1" d="M580.22,212.85c-1.25-.14-2.18-2.82-2.55-3.76-.55-1.39-1-2.82-1.39-4.25-.73-2.5-1.43-5-2.12-7.51-1.82-6.65-3.56-13.31-5.29-20q-5.52-21.36-10.78-42.8-1.67-6.7-3.31-13.41l-1.45,1.9,60.55-.35-1.44-1.9Q607.27,138,602,155.17c-4.27,13.74-8.57,27.47-13.32,41-1,2.72-1.93,5.44-3,8.13a41.68,41.68,0,0,1-2.41,5.31c-.56,1-1.65,3.22-3,3.2a1.5,1.5,0,0,0,0,3c3.47,0,5.5-4.21,6.73-6.87s2.21-5.41,3.21-8.15c2.23-6.15,4.3-12.36,6.33-18.58,4.72-14.44,9.22-29,13.65-43.49q2.61-8.58,5.19-17.18a1.52,1.52,0,0,0-1.45-1.9l-60.55.35a1.51,1.51,0,0,0-1.44,1.89q3.93,16,8,32.05c3.67,14.63,7.35,29.27,11.34,43.82.77,2.84,1.56,5.67,2.4,8.5,1,3.4,2.4,9.08,6.64,9.56C582.13,216.07,582.12,213.07,580.22,212.85Z" transform="translate(-467.9 -119.68)"/><path class="cls-1" d="M566.06,229.3c-3.55,5.54-4,14.37,1.53,18.84a17.06,17.06,0,0,0,16.54,2.28c5.52-2.24,8.08-7.67,7.8-13.43-.26-5.26-2.51-11.08-7-14.12-6.49-4.36-15,.84-18.85,6.43-1.09,1.6,1.51,3.1,2.59,1.51,2.66-3.9,8.86-8.3,13.76-5.92,3.82,1.85,5.81,6.6,6.38,10.58.59,4.14-.31,9-4.1,11.33a14.08,14.08,0,0,1-13.49.17,8.67,8.67,0,0,1-4.6-6.48,13.76,13.76,0,0,1,2-9.68C569.69,229.18,567.1,227.67,566.06,229.3Z" transform="translate(-467.9 -119.68)"/><path class="cls-1" d="M496.27,318.71c-1.24-.14-2.18-2.83-2.54-3.76-.55-1.39-1-2.83-1.39-4.26-.74-2.49-1.43-5-2.12-7.5-1.83-6.65-3.57-13.32-5.29-20q-5.52-21.37-10.79-42.8c-1.1-4.47-2.21-8.94-3.3-13.42l-1.45,1.9,60.55-.34-1.45-1.9Q523.33,243.86,518,261c-4.26,13.73-8.56,27.47-13.32,41-.95,2.72-1.93,5.44-3,8.13a41.49,41.49,0,0,1-2.4,5.31c-.57,1-1.66,3.21-3,3.2a1.5,1.5,0,0,0,0,3c3.48,0,5.5-4.21,6.73-6.87s2.22-5.41,3.21-8.15c2.24-6.15,4.3-12.37,6.34-18.59,4.72-14.44,9.21-29,13.64-43.48q2.63-8.58,5.2-17.18a1.51,1.51,0,0,0-1.45-1.9l-60.55.34a1.53,1.53,0,0,0-1.45,1.9q3.93,16,7.95,32c3.67,14.64,7.36,29.27,11.34,43.83.78,2.83,1.57,5.67,2.41,8.49,1,3.4,2.4,9.08,6.63,9.57C498.19,321.93,498.17,318.93,496.27,318.71Z" transform="translate(-467.9 -119.68)"/><path class="cls-1" d="M482.11,335.15c-3.55,5.54-4,14.38,1.53,18.85a17.13,17.13,0,0,0,16.55,2.28c5.52-2.24,8.07-7.67,7.79-13.43-.25-5.27-2.5-11.08-7-14.12-6.49-4.37-15.05.84-18.86,6.42-1.09,1.6,1.51,3.11,2.59,1.52,2.66-3.91,8.87-8.3,13.76-5.93,3.83,1.86,5.81,6.6,6.38,10.58.6,4.15-.3,9-4.1,11.34a14.06,14.06,0,0,1-13.48.16,8.64,8.64,0,0,1-4.61-6.47,13.8,13.8,0,0,1,2.05-9.68C485.75,335,483.15,333.53,482.11,335.15Z" transform="translate(-467.9 -119.68)"/><path class="cls-1" d="M526.25,497.39c-1.25-.14-2.18-2.82-2.55-3.76-.54-1.39-1-2.82-1.39-4.25-.73-2.5-1.43-5-2.12-7.51-1.82-6.64-3.56-13.31-5.28-20q-5.52-21.36-10.79-42.8-1.67-6.7-3.31-13.41l-1.44,1.9,60.55-.35-1.45-1.9q-5.16,17.22-10.49,34.4c-4.27,13.73-8.57,27.46-13.32,41-1,2.72-1.93,5.44-3,8.13a39.07,39.07,0,0,1-2.41,5.31c-.56,1-1.65,3.22-3,3.2a1.5,1.5,0,0,0,0,3c3.47,0,5.5-4.21,6.73-6.87s2.22-5.41,3.21-8.15c2.23-6.15,4.3-12.36,6.33-18.58,4.73-14.44,9.22-29,13.65-43.49q2.61-8.58,5.19-17.18a1.52,1.52,0,0,0-1.44-1.9l-60.55.35a1.51,1.51,0,0,0-1.45,1.89q3.93,16,7.95,32.05c3.67,14.63,7.35,29.27,11.34,43.82.78,2.84,1.56,5.68,2.41,8.5,1,3.4,2.4,9.08,6.63,9.56C528.17,500.62,528.15,497.61,526.25,497.39Z" transform="translate(-467.9 -119.68)"/><path class="cls-1" d="M512.09,513.84c-3.55,5.54-4,14.37,1.53,18.84A17.06,17.06,0,0,0,530.16,535c5.52-2.24,8.08-7.67,7.8-13.43-.25-5.26-2.51-11.08-7-14.12-6.49-4.36-15,.84-18.85,6.43-1.09,1.6,1.51,3.1,2.59,1.51,2.66-3.9,8.86-8.3,13.76-5.92,3.82,1.85,5.81,6.6,6.38,10.58.6,4.14-.31,9-4.1,11.33a14.08,14.08,0,0,1-13.49.17,8.67,8.67,0,0,1-4.6-6.48,13.77,13.77,0,0,1,2-9.68C515.73,513.72,513.13,512.22,512.09,513.84Z" transform="translate(-467.9 -119.68)"/></svg>