<svg id="Lager_1" data-name="Lager 1" xmlns="http://www.w3.org/2000/svg" viewBox="0 0 881.61 448.55"><defs><style>.cls-1{fill:none;stroke:#7d93e2;stroke-miterlimit:10;stroke-width:3px;}</style></defs><path class="cls-1" d="M430.63,249.17l-9-9c2.57-3.5,9.88-12.42,22.5-15.75,13.06-3.45,23.8,1.18,31.5,4.5s13.08,5.64,15.75,11.25c5.49,11.55-5.66,25.66-6.75,27-10.2,12.62-26.11,13.41-29.2,13.5q-2.82,14.07-5.62,28.13l-19.13-1.13q2.82-19.68,5.63-39.37a46.63,46.63,0,0,0,13.5-2.25,45.9,45.9,0,0,0,15.75-9c4.32-3.79,7.22-6.33,6.75-9-.81-4.54-10.73-6.39-15.75-6.75C445.59,240.5,436.43,245.17,430.63,249.17Z" transform="translate(-262.72 -106.21)"/><path class="cls-1" d="M436.26,338.05a10.53,10.53,0,0,1-9-6.75,10.68,10.68,0,0,1,2.25-11.25c4.29-4.41,12.08-4,15.75,0a9.64,9.64,0,0,1,2.25,6.75C447.27,332.26,442.43,338.37,436.26,338.05Z" transform="translate(-262.72 -106.21)"/><path class="cls-1" d="M515.63,335.17l-9-9c2.57-3.5,9.88-12.42,22.5-15.75,13.06-3.45,23.8,1.18,31.5,4.5s13.08,5.64,15.75,11.25c5.49,11.55-5.66,25.66-6.75,27-10.2,12.62-26.11,13.41-29.2,13.5q-2.82,14.07-5.62,28.13l-19.13-1.13q2.82-19.68,5.63-39.37a46.63,46.63,0,0,0,13.5-2.25,45.9,45.9,0,0,0,15.75-9c4.32-3.79,7.22-6.33,6.75-9-.81-4.54-10.73-6.39-15.75-6.75C530.59,326.5,521.43,331.17,515.63,335.17Z" transform="translate(-262.72 -106.21)"/><path class="cls-1" d="M521.26,424.05a10.53,10.53,0,0,1-9-6.75,10.68,10.68,0,0,1,2.25-11.25c4.29-4.41,12.08-4,15.75,0a9.64,9.64,0,0,1,2.25,6.75C532.27,418.26,527.43,424.37,521.26,424.05Z" transform="translate(-262.72 -106.21)"/><path class="cls-1" d="M655.63,220.17l-9-9c2.57-3.5,9.88-12.42,22.5-15.75,13.06-3.45,23.8,1.18,31.5,4.5s13.08,5.64,15.75,11.25c5.49,11.55-5.66,25.66-6.75,27-10.2,12.62-26.11,13.41-29.2,13.5q-2.82,14.07-5.62,28.13l-19.13-1.13q2.82-19.68,5.63-39.37a46.63,46.63,0,0,0,13.5-2.25,45.9,45.9,0,0,0,15.75-9c4.32-3.79,7.22-6.33,6.75-9-.81-4.54-10.73-6.39-15.75-6.75C670.59,211.5,661.43,216.17,655.63,220.17Z" transform="translate(-262.72 -106.21)"/><path class="cls-1" d="M661.26,309.05a10.53,10.53,0,0,1-9-6.75,10.68,10.68,0,0,1,2.25-11.25c4.29-4.41,12.08-4,15.75,0a9.64,9.64,0,0,1,2.25,6.75C672.27,303.26,667.43,309.37,661.26,309.05Z" transform="translate(-262.72 -106.21)"/><path class="cls-1" d="M720,336.17l-9-9c2.57-3.5,9.88-12.42,22.5-15.75,13.06-3.45,23.8,1.18,31.5,4.5s13.08,5.64,15.75,11.25c5.49,11.55-5.66,25.66-6.75,27-10.2,12.62-26.11,13.41-29.2,13.5q-2.82,14.07-5.62,28.13L720,394.67q2.82-19.68,5.63-39.37a46.63,46.63,0,0,0,13.5-2.25,45.8,45.8,0,0,0,15.75-9c4.32-3.79,7.22-6.33,6.75-9-.81-4.54-10.73-6.39-15.75-6.75C734.91,327.5,725.75,332.17,720,336.17Z" transform="translate(-262.72 -106.21)"/><path class="cls-1" d="M725.58,425.05a10.53,10.53,0,0,1-9-6.75,10.71,10.71,0,0,1,2.25-11.25c4.29-4.41,12.08-4,15.75,0a9.61,9.61,0,0,1,2.25,6.75C736.59,419.26,731.75,425.37,725.58,425.05Z" transform="translate(-262.72 -106.21)"/><path class="cls-1" d="M798,148.17l-9-9c2.57-3.5,9.88-12.42,22.5-15.75,13.06-3.45,23.8,1.18,31.5,4.5s13.08,5.64,15.75,11.25c5.49,11.55-5.66,25.66-6.75,27-10.2,12.62-26.11,13.41-29.2,13.5q-2.82,14.07-5.62,28.13L798,206.67q2.82-19.68,5.63-39.37a46.63,46.63,0,0,0,13.5-2.25,45.8,45.8,0,0,0,15.75-9c4.32-3.79,7.22-6.33,6.75-9-.81-4.54-10.73-6.39-15.75-6.75C812.91,139.5,803.75,144.17,798,148.17Z" transform="translate(-262.72 -106.21)"/><path class="cls-1" d="M803.58,237.05a10.53,10.53,0,0,1-9-6.75,10.71,10.71,0,0,1,2.25-11.25c4.29-4.41,12.08-4,15.75,0a9.61,9.61,0,0,1,2.25,6.75C814.59,231.26,809.75,237.37,803.58,237.05Z" transform="translate(-262.72 -106.21)"/><path class="cls-1" d="M843,364.17l-9-9c2.57-3.5,9.88-12.42,22.5-15.75,13.06-3.45,23.8,1.18,31.5,4.5s13.08,5.64,15.75,11.25c5.49,11.55-5.66,25.66-6.75,27-10.2,12.62-26.11,13.41-29.2,13.5q-2.82,14.07-5.62,28.13L843,422.67q2.82-19.68,5.63-39.37a46.63,46.63,0,0,0,13.5-2.25,45.8,45.8,0,0,0,15.75-9c4.32-3.79,7.22-6.33,6.75-9-.81-4.54-10.73-6.39-15.75-6.75C857.91,355.5,848.75,360.17,843,364.17Z" transform="translate(-262.72 -106.21)"/><path class="cls-1" d="M848.58,453.05a10.53,10.53,0,0,1-9-6.75,10.71,10.71,0,0,1,2.25-11.25c4.29-4.41,12.08-4,15.75,0a9.61,9.61,0,0,1,2.25,6.75C859.59,447.26,854.75,453.37,848.58,453.05Z" transform="translate(-262.72 -106.21)"/><path class="cls-1" d="M940.45,234.67l-9-9c2.57-3.5,9.88-12.42,22.5-15.75,13.06-3.45,23.8,1.18,31.5,4.5s13.08,5.64,15.75,11.25c5.49,11.55-5.66,25.66-6.75,27-10.2,12.62-26.11,13.41-29.2,13.5q-2.82,14.07-5.62,28.13l-19.13-1.13q2.82-19.68,5.63-39.37a46.63,46.63,0,0,0,13.5-2.25,45.8,45.8,0,0,0,15.75-9c4.32-3.79,7.22-6.33,6.75-9-.81-4.54-10.73-6.39-15.75-6.75C955.41,226,946.25,230.67,940.45,234.67Z" transform="translate(-262.72 -106.21)"/><path class="cls-1" d="M946.08,323.55a10.53,10.53,0,0,1-9-6.75,10.71,10.71,0,0,1,2.25-11.25c4.29-4.41,12.08-4,15.75,0a9.61,9.61,0,0,1,2.25,6.75C957.09,317.76,952.25,323.87,946.08,323.55Z" transform="translate(-262.72 -106.21)"/><path class="cls-1" d="M586.45,440.67l-9-9c2.57-3.5,9.88-12.42,22.5-15.75,13.06-3.45,23.8,1.18,31.5,4.5s13.08,5.64,15.75,11.25c5.49,11.55-5.66,25.66-6.75,27-10.2,12.62-26.11,13.41-29.2,13.5q-2.82,14.07-5.62,28.13l-19.13-1.13q2.82-19.68,5.63-39.37a46.63,46.63,0,0,0,13.5-2.25,45.8,45.8,0,0,0,15.75-9c4.32-3.79,7.22-6.33,6.75-9-.81-4.54-10.73-6.39-15.75-6.75C601.41,432,592.25,436.67,586.45,440.67Z" transform="translate(-262.72 -106.21)"/><path class="cls-1" d="M592.08,529.55a10.53,10.53,0,0,1-9-6.75,10.71,10.71,0,0,1,2.25-11.25c4.29-4.41,12.08-4,15.75,0a9.61,9.61,0,0,1,2.25,6.75C603.09,523.76,598.25,529.87,592.08,529.55Z" transform="translate(-262.72 -106.21)"/><path class="cls-1" d="M359.45,400.67l-9-9c2.57-3.5,9.88-12.42,22.5-15.75,13.06-3.45,23.8,1.18,31.5,4.5s13.08,5.64,15.75,11.25c5.49,11.55-5.66,25.66-6.75,27-10.2,12.62-26.11,13.41-29.2,13.5q-2.82,14.07-5.62,28.13l-19.13-1.13q2.82-19.68,5.63-39.37a46.63,46.63,0,0,0,13.5-2.25,45.8,45.8,0,0,0,15.75-9c4.32-3.79,7.22-6.33,6.75-9-.81-4.54-10.73-6.39-15.75-6.75C374.41,392,365.25,396.67,359.45,400.67Z" transform="translate(-262.72 -106.21)"/><path class="cls-1" d="M365.08,489.55a10.53,10.53,0,0,1-9-6.75,10.71,10.71,0,0,1,2.25-11.25c4.29-4.41,12.08-4,15.75,0a9.61,9.61,0,0,1,2.25,6.75C376.09,483.76,371.25,489.87,365.08,489.55Z" transform="translate(-262.72 -106.21)"/><path class="cls-1" d="M541.45,133.67l-9-9c2.57-3.5,9.88-12.42,22.5-15.75,13.06-3.45,23.8,1.18,31.5,4.5s13.08,5.64,15.75,11.25c5.49,11.55-5.66,25.66-6.75,27-10.2,12.62-26.11,13.41-29.2,13.5q-2.82,14.07-5.62,28.13l-19.13-1.13q2.82-19.68,5.63-39.37a46.63,46.63,0,0,0,13.5-2.25,45.8,45.8,0,0,0,15.75-9c4.32-3.79,7.22-6.33,6.75-9-.81-4.54-10.73-6.39-15.75-6.75C556.41,125,547.25,129.67,541.45,133.67Z" transform="translate(-262.72 -106.21)"/><path class="cls-1" d="M547.08,222.55a10.53,10.53,0,0,1-9-6.75,10.71,10.71,0,0,1,2.25-11.25c4.29-4.41,12.08-4,15.75,0a9.61,9.61,0,0,1,2.25,6.75C558.09,216.76,553.25,222.87,547.08,222.55Z" transform="translate(-262.72 -106.21)"/><path class="cls-1" d="M293.45,184.67l-9-9c2.57-3.5,9.88-12.42,22.5-15.75,13.06-3.45,23.8,1.18,31.5,4.5s13.08,5.64,15.75,11.25c5.49,11.55-5.66,25.66-6.75,27-10.2,12.62-26.11,13.41-29.2,13.5q-2.82,14.07-5.62,28.13l-19.13-1.13q2.82-19.68,5.63-39.37a46.63,46.63,0,0,0,13.5-2.25,45.8,45.8,0,0,0,15.75-9c4.32-3.79,7.22-6.33,6.75-9-.81-4.54-10.73-6.39-15.75-6.75C308.41,176,299.25,180.67,293.45,184.67Z" transform="translate(-262.72 -106.21)"/><path class="cls-1" d="M299.08,273.55a10.53,10.53,0,0,1-9-6.75,10.71,10.71,0,0,1,2.25-11.25c4.29-4.41,12.08-4,15.75,0a9.61,9.61,0,0,1,2.25,6.75C310.09,267.76,305.25,273.87,299.08,273.55Z" transform="translate(-262.72 -106.21)"/><path class="cls-1" d="M1032,161.55l-9-9c2.57-3.5,9.88-12.42,22.5-15.75,13.06-3.45,23.8,1.18,31.5,4.5s13.08,5.64,15.75,11.25c5.49,11.55-5.66,25.66-6.75,27-10.2,12.62-26.11,13.41-29.2,13.5q-2.82,14.07-5.62,28.13L1032,220.05q2.82-19.68,5.63-39.37a46.63,46.63,0,0,0,13.5-2.25,45.9,45.9,0,0,0,15.75-9c4.32-3.79,7.22-6.33,6.75-9-.81-4.54-10.73-6.39-15.75-6.75C1046.91,152.88,1037.75,157.55,1032,161.55Z" transform="translate(-262.72 -106.21)"/><path class="cls-1" d="M1037.58,250.43a10.53,10.53,0,0,1-9-6.75,10.7,10.7,0,0,1,2.25-11.25c4.29-4.41,12.08-4,15.75,0a9.61,9.61,0,0,1,2.25,6.75C1048.59,244.64,1043.75,250.75,1037.58,250.43Z" transform="translate(-262.72 -106.21)"/><path class="cls-1" d="M944.3,464.36l-9-9c2.57-3.5,9.88-12.42,22.5-15.75,13.06-3.45,23.8,1.18,31.5,4.5s13.08,5.64,15.75,11.25c5.49,11.55-5.66,25.66-6.75,27-10.2,12.62-26.11,13.41-29.2,13.5q-2.8,14.07-5.62,28.13l-19.13-1.13q2.82-19.68,5.63-39.37a46.51,46.51,0,0,0,13.5-2.25,45.8,45.8,0,0,0,15.75-9c4.32-3.79,7.22-6.33,6.75-9-.81-4.54-10.73-6.39-15.75-6.75C959.26,455.69,950.1,460.36,944.3,464.36Z" transform="translate(-262.72 -106.21)"/><path class="cls-1" d="M949.93,553.24a10.54,10.54,0,0,1-9-6.75,10.72,10.72,0,0,1,2.25-11.25c4.29-4.41,12.08-4,15.75,0a9.54,9.54,0,0,1,2.25,6.75C960.94,547.45,956.1,553.56,949.93,553.24Z" transform="translate(-262.72 -106.21)"/><path class="cls-1" d="M273.69,458.12l-9-9c2.57-3.5,9.88-12.42,22.5-15.75,13.06-3.45,23.8,1.18,31.5,4.5s13.08,5.64,15.75,11.25c5.49,11.55-5.66,25.66-6.75,27-10.2,12.62-26.11,13.41-29.2,13.5q-2.82,14.07-5.62,28.13l-19.13-1.13q2.82-19.68,5.63-39.37a47,47,0,0,0,13.5-2.25,46.22,46.22,0,0,0,15.75-9c4.32-3.79,7.22-6.33,6.75-9-.81-4.54-10.73-6.39-15.75-6.75C288.65,449.45,279.49,454.12,273.69,458.12Z" transform="translate(-262.72 -106.21)"/><path class="cls-1" d="M279.32,547a10.55,10.55,0,0,1-9-6.75A10.7,10.7,0,0,1,272.57,529c4.29-4.41,12.08-4,15.75,0a9.58,9.58,0,0,1,2.25,6.75C290.33,541.21,285.49,547.32,279.32,547Z" transform="translate(-262.72 -106.21)"/><path class="cls-1" d="M1080.57,343.7l-9-9c2.57-3.5,9.88-12.42,22.5-15.75,13.06-3.45,23.8,1.18,31.5,4.5s13.08,5.64,15.75,11.25c5.49,11.55-5.66,25.66-6.75,27-10.2,12.62-26.11,13.41-29.2,13.5q-2.8,14.07-5.62,28.13l-19.13-1.13q2.82-19.68,5.63-39.37a47,47,0,0,0,13.5-2.25,46.13,46.13,0,0,0,15.75-9c4.32-3.79,7.22-6.33,6.75-9-.81-4.54-10.73-6.39-15.75-6.75C1095.53,335,1086.37,339.7,1080.57,343.7Z" transform="translate(-262.72 -106.21)"/><path class="cls-1" d="M1086.2,432.58a10.56,10.56,0,0,1-9-6.75,10.7,10.7,0,0,1,2.25-11.25c4.29-4.41,12.08-4,15.75,0a9.58,9.58,0,0,1,2.25,6.75C1097.21,426.79,1092.37,432.9,1086.2,432.58Z" transform="translate(-262.72 -106.21)"/><path class="cls-1" d="M742.21,450.08l-9-9c2.57-3.5,9.88-12.42,22.5-15.75,13.06-3.45,23.8,1.18,31.5,4.5s13.08,5.64,15.75,11.25c5.49,11.55-5.66,25.66-6.75,27C786,480.7,770.1,481.49,767,481.58q-2.81,14.07-5.62,28.13l-19.13-1.13q2.82-19.68,5.63-39.37a46.51,46.51,0,0,0,13.5-2.25,45.8,45.8,0,0,0,15.75-9c4.32-3.79,7.22-6.33,6.75-9-.81-4.54-10.73-6.39-15.75-6.75C757.17,441.41,748,446.08,742.21,450.08Z" transform="translate(-262.72 -106.21)"/><path class="cls-1" d="M747.84,539a10.53,10.53,0,0,1-9-6.75A10.73,10.73,0,0,1,741.09,521c4.29-4.41,12.08-4,15.75,0a9.56,9.56,0,0,1,2.25,6.75C758.85,533.17,754,539.28,747.84,539Z" transform="translate(-262.72 -106.21)"/></svg>