<svg id="Lager_1" data-name="Lager 1" xmlns="http://www.w3.org/2000/svg" viewBox="0 0 674.55 470.26"><defs><style>.cls-1{fill:#7d93e2;}</style></defs><path class="cls-1" d="M744.48,268.67c-1-.12-1.84-2.51-2.15-3.28-.48-1.23-.86-2.51-1.23-3.78-.66-2.22-1.28-4.46-1.9-6.7-1.64-6-3.21-12-4.76-18q-5-19.21-9.7-38.49-1.51-6.1-3-12.21l-1.44,1.9,54.49-.31-1.44-1.9q-4.64,15.43-9.41,30.83c-3.83,12.34-7.69,24.67-12,36.87-.86,2.45-1.73,4.9-2.67,7.33a39.18,39.18,0,0,1-2.11,4.73c-.49.88-1.49,3-2.71,3a1.5,1.5,0,0,0,0,3c3.25,0,5.12-3.91,6.26-6.42,1.06-2.32,1.93-4.73,2.8-7.13,2-5.58,3.9-11.21,5.74-16.84,4.25-13,8.3-26.06,12.28-39.14q2.36-7.71,4.67-15.43a1.52,1.52,0,0,0-1.45-1.9l-54.49.31a1.52,1.52,0,0,0-1.45,1.9q3.54,14.46,7.17,28.89c3.31,13.22,6.64,26.43,10.24,39.57.69,2.53,1.4,5.06,2.15,7.58.94,3.13,2.21,8.14,6.08,8.61C746.4,271.9,746.38,268.9,744.48,268.67Z" transform="translate(-487.53 -98.64)"/><path class="cls-1" d="M731.61,283.54c-3.23,5-3.61,13.08,1.4,17.14a15.52,15.52,0,0,0,15,2.09c5-2,7.39-7,7.13-12.23-.23-4.79-2.28-10.07-6.39-12.83-5.91-4-13.7.74-17.17,5.83-1.09,1.6,1.51,3.1,2.59,1.52,2.35-3.45,7.84-7.37,12.18-5.28,3.4,1.63,5.17,5.9,5.67,9.43s-.27,7.94-3.62,10a12.51,12.51,0,0,1-12,.15,7.65,7.65,0,0,1-4.07-5.74,12.21,12.21,0,0,1,1.83-8.59C735.24,283.43,732.65,281.92,731.61,283.54Z" transform="translate(-487.53 -98.64)"/><path class="cls-1" d="M643.72,377.07c-1-.12-1.84-2.5-2.15-3.27-.48-1.24-.86-2.51-1.23-3.78-.66-2.23-1.28-4.47-1.9-6.7-1.64-6-3.21-12-4.76-18q-5-19.21-9.7-38.49-1.51-6.1-3-12.2l-1.44,1.9,54.49-.31-1.44-1.9q-4.64,15.44-9.41,30.83c-3.83,12.33-7.69,24.67-12,36.86-.86,2.45-1.73,4.9-2.67,7.33a39.18,39.18,0,0,1-2.11,4.73c-.49.89-1.49,3-2.71,3a1.5,1.5,0,0,0,0,3c3.25,0,5.12-3.91,6.26-6.42,1.06-2.32,1.93-4.73,2.8-7.13,2-5.57,3.9-11.2,5.74-16.84,4.25-13,8.3-26.06,12.28-39.13q2.36-7.71,4.67-15.44a1.51,1.51,0,0,0-1.45-1.89l-54.49.31a1.52,1.52,0,0,0-1.45,1.9q3.54,14.44,7.17,28.89c3.31,13.21,6.64,26.43,10.24,39.57.69,2.53,1.4,5.06,2.15,7.57.94,3.14,2.21,8.15,6.08,8.61C645.64,380.3,645.62,377.3,643.72,377.07Z" transform="translate(-487.53 -98.64)"/><path class="cls-1" d="M630.85,392c-3.23,5-3.61,13.07,1.4,17.14a15.52,15.52,0,0,0,15,2.09c5-2,7.39-7,7.13-12.24-.23-4.79-2.28-10.07-6.39-12.83-5.91-4-13.7.75-17.17,5.84-1.09,1.59,1.51,3.1,2.59,1.51,2.35-3.45,7.84-7.36,12.18-5.28,3.4,1.64,5.17,5.9,5.67,9.43s-.27,7.94-3.62,10a12.48,12.48,0,0,1-12,.15,7.64,7.64,0,0,1-4.07-5.73,12.22,12.22,0,0,1,1.83-8.6C634.48,391.83,631.89,390.32,630.85,392Z" transform="translate(-487.53 -98.64)"/><path class="cls-1" d="M727.42,487.77c-1-.12-1.84-2.5-2.15-3.27-.48-1.24-.86-2.51-1.23-3.78-.66-2.23-1.28-4.47-1.9-6.7-1.64-6-3.21-12-4.76-18q-5-19.22-9.7-38.49-1.51-6.11-3-12.2l-1.44,1.9,54.49-.31-1.44-1.9q-4.63,15.44-9.41,30.83c-3.83,12.33-7.69,24.67-12,36.86-.86,2.45-1.73,4.9-2.67,7.33a39.18,39.18,0,0,1-2.11,4.73c-.49.89-1.49,3-2.71,3a1.5,1.5,0,0,0,0,3c3.25,0,5.12-3.91,6.26-6.42,1.06-2.32,1.93-4.73,2.8-7.13,2-5.57,3.9-11.2,5.74-16.84,4.25-13,8.3-26.06,12.28-39.13q2.36-7.71,4.67-15.44a1.51,1.51,0,0,0-1.45-1.89l-54.49.31a1.52,1.52,0,0,0-1.45,1.9Q705.32,420.58,709,435c3.31,13.21,6.64,26.43,10.24,39.57.69,2.53,1.4,5.06,2.15,7.57.94,3.14,2.21,8.15,6.08,8.61C729.34,491,729.32,488,727.42,487.77Z" transform="translate(-487.53 -98.64)"/><path class="cls-1" d="M714.55,502.65c-3.23,5-3.61,13.07,1.4,17.14a15.52,15.52,0,0,0,15,2.09c5-2,7.39-7,7.13-12.24-.23-4.79-2.28-10.07-6.39-12.83-5.91-4-13.7.75-17.17,5.84-1.09,1.59,1.51,3.1,2.59,1.51,2.35-3.45,7.84-7.36,12.18-5.28,3.4,1.64,5.17,5.9,5.67,9.43s-.27,7.94-3.62,10a12.48,12.48,0,0,1-12,.15,7.64,7.64,0,0,1-4.07-5.73,12.22,12.22,0,0,1,1.83-8.6C718.18,502.53,715.59,501,714.55,502.65Z" transform="translate(-487.53 -98.64)"/><path class="cls-1" d="M794.92,334.77c-1-.12-1.84-2.5-2.15-3.27-.48-1.24-.86-2.51-1.23-3.78-.66-2.23-1.28-4.47-1.9-6.7-1.64-6-3.21-12-4.76-18q-5-19.22-9.7-38.49-1.51-6.11-3-12.2l-1.44,1.9,54.49-.31-1.44-1.9q-4.63,15.43-9.41,30.83c-3.83,12.33-7.69,24.67-12,36.86-.86,2.45-1.73,4.9-2.67,7.33a39.18,39.18,0,0,1-2.11,4.73c-.49.89-1.49,3-2.71,3a1.5,1.5,0,0,0,0,3c3.25,0,5.12-3.91,6.26-6.42,1.06-2.32,1.93-4.73,2.8-7.13,2-5.57,3.9-11.2,5.74-16.84,4.25-13,8.3-26.06,12.28-39.13q2.36-7.71,4.67-15.44a1.51,1.51,0,0,0-1.45-1.89l-54.49.31a1.52,1.52,0,0,0-1.45,1.9q3.54,14.44,7.17,28.89c3.31,13.21,6.64,26.43,10.24,39.57.69,2.53,1.4,5.06,2.15,7.57.94,3.14,2.21,8.15,6.08,8.61C796.84,338,796.82,335,794.92,334.77Z" transform="translate(-487.53 -98.64)"/><path class="cls-1" d="M782.05,349.65c-3.23,5-3.61,13.07,1.4,17.14a15.52,15.52,0,0,0,15,2.09c5-2,7.39-7,7.13-12.24-.23-4.79-2.28-10.07-6.39-12.83-5.91-4-13.7.75-17.17,5.84-1.09,1.59,1.51,3.1,2.59,1.51,2.35-3.45,7.84-7.36,12.18-5.28,3.4,1.64,5.17,5.9,5.67,9.43s-.27,7.94-3.62,10a12.48,12.48,0,0,1-12,.15,7.64,7.64,0,0,1-4.07-5.73,12.22,12.22,0,0,1,1.83-8.6C785.68,349.53,783.09,348,782.05,349.65Z" transform="translate(-487.53 -98.64)"/><path class="cls-1" d="M537.52,441.87c-1-.12-1.84-2.5-2.15-3.27-.48-1.24-.86-2.51-1.23-3.78-.66-2.23-1.28-4.47-1.9-6.7-1.64-6-3.21-12-4.76-18q-5-19.22-9.7-38.49-1.51-6.11-3-12.2l-1.44,1.9,54.49-.31-1.44-1.9Q561.74,374.56,557,390c-3.83,12.33-7.69,24.67-12,36.86-.86,2.45-1.73,4.9-2.67,7.33a39.18,39.18,0,0,1-2.11,4.73c-.49.89-1.49,3-2.71,3a1.5,1.5,0,0,0,0,3c3.25,0,5.12-3.91,6.26-6.42,1.06-2.32,1.93-4.73,2.8-7.13,2-5.57,3.9-11.2,5.74-16.84,4.25-13,8.3-26.06,12.28-39.13q2.35-7.71,4.67-15.44a1.51,1.51,0,0,0-1.45-1.89l-54.49.31a1.52,1.52,0,0,0-1.45,1.9q3.54,14.44,7.17,28.89c3.31,13.21,6.64,26.43,10.24,39.57.69,2.53,1.4,5.06,2.15,7.57.94,3.14,2.21,8.15,6.08,8.61C539.44,445.1,539.42,442.1,537.52,441.87Z" transform="translate(-487.53 -98.64)"/><path class="cls-1" d="M524.65,456.75c-3.23,5-3.61,13.07,1.4,17.14a15.52,15.52,0,0,0,15,2.09c5-2,7.39-7,7.13-12.24-.23-4.79-2.28-10.07-6.39-12.83-5.91-4-13.7.75-17.17,5.84-1.09,1.59,1.51,3.1,2.59,1.51,2.35-3.45,7.84-7.36,12.18-5.28,3.4,1.64,5.17,5.9,5.67,9.43s-.27,7.94-3.62,10a12.48,12.48,0,0,1-12,.15,7.64,7.64,0,0,1-4.07-5.73,12.22,12.22,0,0,1,1.83-8.6C528.28,456.63,525.69,455.12,524.65,456.75Z" transform="translate(-487.53 -98.64)"/><path class="cls-1" d="M895.72,410.37c-1-.12-1.84-2.5-2.15-3.27-.48-1.24-.86-2.51-1.23-3.78-.66-2.23-1.28-4.47-1.9-6.7-1.64-6-3.21-12-4.76-18q-5-19.22-9.7-38.49-1.51-6.11-3-12.2l-1.44,1.9,54.49-.31-1.44-1.9q-4.64,15.44-9.41,30.83c-3.83,12.33-7.69,24.67-12,36.86-.86,2.45-1.73,4.9-2.67,7.33a39.18,39.18,0,0,1-2.11,4.73c-.49.89-1.49,3-2.71,3a1.5,1.5,0,0,0,0,3c3.25,0,5.12-3.91,6.26-6.42,1.06-2.32,1.93-4.73,2.8-7.13,2-5.57,3.9-11.2,5.74-16.84,4.25-13,8.3-26.06,12.28-39.13q2.36-7.71,4.67-15.44a1.51,1.51,0,0,0-1.45-1.89l-54.49.31a1.52,1.52,0,0,0-1.45,1.9q3.54,14.44,7.17,28.89c3.31,13.21,6.64,26.43,10.24,39.57.69,2.53,1.4,5.06,2.15,7.57.94,3.14,2.21,8.15,6.08,8.61C897.64,413.6,897.62,410.6,895.72,410.37Z" transform="translate(-487.53 -98.64)"/><path class="cls-1" d="M882.85,425.25c-3.23,5-3.61,13.07,1.4,17.14a15.52,15.52,0,0,0,15,2.09c5-2,7.39-7,7.13-12.24-.23-4.79-2.28-10.07-6.39-12.83-5.91-4-13.7.75-17.17,5.84-1.09,1.59,1.51,3.1,2.59,1.51,2.35-3.45,7.84-7.36,12.18-5.28,3.4,1.64,5.17,5.9,5.67,9.43s-.27,7.94-3.62,10a12.48,12.48,0,0,1-12,.15,7.64,7.64,0,0,1-4.07-5.73,12.22,12.22,0,0,1,1.83-8.6C886.48,425.13,883.89,423.62,882.85,425.25Z" transform="translate(-487.53 -98.64)"/><path class="cls-1" d="M571.31,314.75c-1-.13-1.84-2.51-2.15-3.28-.48-1.23-.85-2.51-1.23-3.78-.66-2.23-1.28-4.46-1.89-6.7-1.65-6-3.21-12-4.77-18q-5-19.22-9.7-38.49-1.52-6.1-3-12.21l-1.44,1.9,54.49-.31-1.44-1.9q-4.63,15.44-9.41,30.83c-3.83,12.33-7.69,24.67-12,36.86-.85,2.46-1.73,4.91-2.67,7.33a38.64,38.64,0,0,1-2.11,4.74c-.49.88-1.49,3-2.71,3a1.5,1.5,0,0,0,0,3c3.26,0,5.12-3.91,6.26-6.42,1.06-2.33,1.93-4.74,2.81-7.14,2-5.57,3.89-11.2,5.74-16.84,4.25-13,8.29-26.05,12.27-39.13q2.36-7.71,4.67-15.43a1.52,1.52,0,0,0-1.45-1.9l-54.49.31a1.52,1.52,0,0,0-1.45,1.9q3.54,14.46,7.17,28.89c3.31,13.22,6.64,26.43,10.24,39.57.69,2.53,1.4,5.06,2.15,7.58.94,3.13,2.21,8.14,6.08,8.61C573.23,318,573.21,315,571.31,314.75Z" transform="translate(-487.53 -98.64)"/><path class="cls-1" d="M558.44,329.62c-3.23,5-3.61,13.07,1.4,17.14a15.52,15.52,0,0,0,15,2.09c5-2,7.39-7,7.13-12.23-.23-4.79-2.28-10.07-6.39-12.83-5.91-4-13.7.74-17.17,5.83-1.09,1.6,1.51,3.1,2.59,1.51,2.35-3.45,7.84-7.36,12.18-5.28,3.4,1.64,5.17,5.91,5.67,9.44s-.27,7.93-3.62,10a12.54,12.54,0,0,1-12,.15,7.65,7.65,0,0,1-4.07-5.74,12.3,12.3,0,0,1,1.83-8.6C562.07,329.5,559.48,328,558.44,329.62Z" transform="translate(-487.53 -98.64)"/><path class="cls-1" d="M945.71,295c-1-.13-1.84-2.51-2.15-3.28-.48-1.23-.85-2.51-1.23-3.78-.66-2.23-1.28-4.46-1.89-6.7-1.65-6-3.21-12-4.77-18q-5-19.22-9.7-38.49-1.51-6.11-3-12.21l-1.44,1.9,54.49-.31-1.44-1.9q-4.64,15.44-9.41,30.83c-3.83,12.33-7.69,24.67-12,36.86-.85,2.46-1.73,4.91-2.67,7.33a38.64,38.64,0,0,1-2.11,4.74c-.49.88-1.49,3-2.71,3a1.5,1.5,0,0,0,0,3c3.26,0,5.12-3.91,6.26-6.42,1.06-2.33,1.93-4.74,2.81-7.14,2-5.57,3.89-11.2,5.74-16.84,4.25-13,8.29-26.05,12.27-39.13q2.36-7.71,4.67-15.43a1.52,1.52,0,0,0-1.45-1.9l-54.49.31a1.52,1.52,0,0,0-1.45,1.9q3.54,14.46,7.17,28.89c3.31,13.22,6.64,26.43,10.24,39.57.69,2.53,1.4,5.06,2.15,7.58.94,3.13,2.21,8.14,6.08,8.61C947.63,298.18,947.61,295.17,945.71,295Z" transform="translate(-487.53 -98.64)"/><path class="cls-1" d="M932.84,309.82c-3.23,5-3.61,13.07,1.4,17.14a15.52,15.52,0,0,0,15,2.09c5-2,7.39-7,7.13-12.23-.23-4.79-2.28-10.07-6.39-12.83-5.91-4-13.7.74-17.17,5.83-1.09,1.6,1.51,3.1,2.59,1.51,2.35-3.45,7.84-7.36,12.18-5.28,3.4,1.64,5.17,5.91,5.67,9.44s-.27,7.93-3.62,10a12.54,12.54,0,0,1-12,.15,7.65,7.65,0,0,1-4.07-5.74,12.3,12.3,0,0,1,1.83-8.6C936.47,309.7,933.88,308.2,932.84,309.82Z" transform="translate(-487.53 -98.64)"/><path class="cls-1" d="M1013.21,443.45c-1-.13-1.84-2.51-2.15-3.28-.48-1.23-.85-2.51-1.23-3.78-.66-2.23-1.28-4.46-1.89-6.7-1.65-6-3.21-12-4.77-18q-5-19.21-9.7-38.49-1.51-6.1-3-12.21L989,362.9l54.49-.31-1.44-1.9q-4.63,15.44-9.41,30.83c-3.83,12.33-7.69,24.67-12,36.86-.85,2.46-1.73,4.91-2.67,7.33a38.64,38.64,0,0,1-2.11,4.74c-.49.88-1.49,3-2.71,3a1.5,1.5,0,0,0,0,3c3.26,0,5.12-3.91,6.26-6.42,1.06-2.33,1.93-4.74,2.81-7.14,2-5.57,3.89-11.2,5.74-16.84,4.25-13,8.29-26.05,12.27-39.13q2.36-7.71,4.67-15.43a1.52,1.52,0,0,0-1.45-1.9L989,359.9a1.52,1.52,0,0,0-1.45,1.9q3.54,14.46,7.17,28.89c3.31,13.22,6.64,26.43,10.24,39.57.69,2.53,1.4,5.06,2.15,7.58.94,3.13,2.21,8.14,6.08,8.61C1015.13,446.68,1015.11,443.67,1013.21,443.45Z" transform="translate(-487.53 -98.64)"/><path class="cls-1" d="M1000.34,458.32c-3.23,5-3.61,13.07,1.4,17.14a15.52,15.52,0,0,0,15,2.09c5-2,7.39-7,7.13-12.23-.23-4.79-2.28-10.07-6.39-12.83-5.91-4-13.7.74-17.17,5.83-1.09,1.6,1.51,3.1,2.59,1.51,2.35-3.45,7.84-7.36,12.18-5.28,3.4,1.64,5.17,5.91,5.67,9.44s-.27,7.93-3.62,10a12.54,12.54,0,0,1-12,.15,7.65,7.65,0,0,1-4.07-5.74,12.3,12.3,0,0,1,1.83-8.6C1004,458.2,1001.38,456.7,1000.34,458.32Z" transform="translate(-487.53 -98.64)"/><path class="cls-1" d="M1076.21,282.35c-1-.13-1.84-2.51-2.15-3.28-.48-1.23-.85-2.51-1.23-3.78-.66-2.23-1.28-4.46-1.89-6.7-1.65-6-3.21-12-4.77-18q-5-19.22-9.7-38.49-1.52-6.11-3-12.21l-1.44,1.9,54.49-.31-1.44-1.9q-4.63,15.43-9.41,30.83c-3.83,12.33-7.69,24.67-12,36.86-.85,2.46-1.73,4.91-2.67,7.33a38.64,38.64,0,0,1-2.11,4.74c-.49.88-1.49,3-2.71,3a1.5,1.5,0,0,0,0,3c3.26,0,5.12-3.91,6.26-6.42,1.06-2.33,1.93-4.74,2.81-7.14,2-5.57,3.89-11.2,5.74-16.84,4.25-13,8.29-26,12.27-39.13q2.36-7.71,4.67-15.43a1.52,1.52,0,0,0-1.45-1.9l-54.49.31a1.52,1.52,0,0,0-1.45,1.9q3.54,14.46,7.17,28.89c3.31,13.22,6.64,26.43,10.24,39.57.69,2.53,1.4,5.06,2.15,7.58.94,3.13,2.21,8.14,6.08,8.61C1078.13,285.58,1078.11,282.57,1076.21,282.35Z" transform="translate(-487.53 -98.64)"/><path class="cls-1" d="M1063.34,297.22c-3.23,5-3.61,13.07,1.4,17.14a15.52,15.52,0,0,0,15,2.09c5-2,7.39-7,7.13-12.23-.23-4.79-2.28-10.07-6.39-12.83-5.91-4-13.7.74-17.17,5.83-1.09,1.6,1.51,3.1,2.59,1.51,2.35-3.45,7.84-7.36,12.18-5.28,3.4,1.64,5.17,5.91,5.67,9.44s-.27,7.93-3.62,10a12.54,12.54,0,0,1-12,.15,7.65,7.65,0,0,1-4.07-5.74,12.3,12.3,0,0,1,1.83-8.6C1067,297.1,1064.38,295.6,1063.34,297.22Z" transform="translate(-487.53 -98.64)"/><path class="cls-1" d="M890.81,236.45c-1-.13-1.84-2.51-2.15-3.28-.48-1.23-.85-2.51-1.23-3.78-.66-2.23-1.28-4.46-1.89-6.7-1.65-6-3.21-12-4.77-18q-5-19.22-9.7-38.49-1.52-6.11-3-12.21l-1.44,1.9,54.49-.31-1.44-1.9q-4.63,15.44-9.41,30.83c-3.83,12.33-7.69,24.67-12,36.86-.85,2.46-1.73,4.91-2.67,7.33a38.64,38.64,0,0,1-2.11,4.74c-.49.88-1.49,3-2.71,3a1.5,1.5,0,0,0,0,3c3.26,0,5.12-3.91,6.26-6.42,1.06-2.33,1.93-4.74,2.81-7.14,2-5.57,3.89-11.2,5.74-16.84,4.25-13,8.29-26.05,12.27-39.13q2.36-7.71,4.67-15.43a1.52,1.52,0,0,0-1.45-1.9l-54.49.31a1.52,1.52,0,0,0-1.45,1.9q3.54,14.46,7.17,28.89c3.31,13.22,6.64,26.43,10.24,39.57.69,2.53,1.4,5.06,2.15,7.58.94,3.13,2.21,8.14,6.08,8.61C892.73,239.68,892.71,236.67,890.81,236.45Z" transform="translate(-487.53 -98.64)"/><path class="cls-1" d="M877.94,251.32c-3.23,5-3.61,13.07,1.4,17.14a15.52,15.52,0,0,0,15,2.09c5-2,7.39-7,7.13-12.23-.23-4.79-2.28-10.07-6.39-12.83-5.91-4-13.7.74-17.17,5.83-1.09,1.6,1.51,3.1,2.59,1.51,2.35-3.45,7.84-7.36,12.18-5.28,3.4,1.64,5.17,5.91,5.67,9.44s-.27,7.93-3.62,10a12.54,12.54,0,0,1-12,.15,7.65,7.65,0,0,1-4.07-5.74,12.3,12.3,0,0,1,1.83-8.6C881.57,251.2,879,249.7,877.94,251.32Z" transform="translate(-487.53 -98.64)"/><path class="cls-1" d="M513.21,237c-1-.12-1.84-2.5-2.15-3.28-.48-1.23-.85-2.51-1.23-3.78-.66-2.22-1.28-4.46-1.89-6.7-1.65-6-3.21-12-4.77-18q-5-19.22-9.7-38.49-1.52-6.11-3-12.2L489,156.43l54.49-.31-1.44-1.89q-4.64,15.44-9.41,30.82c-3.83,12.34-7.69,24.68-12,36.87-.85,2.45-1.73,4.9-2.67,7.33a39.18,39.18,0,0,1-2.11,4.73c-.49.89-1.49,3-2.71,3a1.5,1.5,0,0,0,0,3c3.26,0,5.12-3.91,6.26-6.42,1.06-2.32,1.93-4.73,2.81-7.13,2-5.58,3.89-11.21,5.74-16.84,4.25-13,8.29-26.06,12.27-39.14q2.36-7.71,4.67-15.43a1.52,1.52,0,0,0-1.45-1.9l-54.49.31a1.52,1.52,0,0,0-1.45,1.9q3.54,14.46,7.17,28.9c3.31,13.21,6.64,26.43,10.24,39.57.69,2.53,1.4,5.06,2.15,7.57.94,3.14,2.21,8.14,6.08,8.61C515.13,240.21,515.11,237.21,513.21,237Z" transform="translate(-487.53 -98.64)"/><path class="cls-1" d="M500.34,251.85c-3.23,5-3.61,13.08,1.4,17.15a15.52,15.52,0,0,0,15,2.08c5-2,7.39-7,7.13-12.23-.23-4.79-2.28-10.07-6.39-12.83-5.91-4-13.7.74-17.17,5.83-1.09,1.6,1.51,3.11,2.59,1.52,2.35-3.45,7.84-7.36,12.18-5.28,3.4,1.64,5.17,5.9,5.67,9.43s-.27,7.94-3.62,10a12.48,12.48,0,0,1-12,.15A7.65,7.65,0,0,1,501.1,262a12.26,12.26,0,0,1,1.83-8.59C504,251.74,501.38,250.23,500.34,251.85Z" transform="translate(-487.53 -98.64)"/><path class="cls-1" d="M821.72,533.73c-1-.12-1.84-2.5-2.15-3.27-.48-1.24-.85-2.51-1.23-3.78-.66-2.23-1.28-4.47-1.89-6.7-1.65-6-3.21-12-4.77-18q-5-19.22-9.7-38.49-1.51-6.11-3-12.2l-1.44,1.9,54.49-.31-1.44-1.9q-4.64,15.43-9.41,30.83c-3.83,12.33-7.69,24.67-12,36.86-.85,2.46-1.73,4.9-2.67,7.33a38.5,38.5,0,0,1-2.11,4.73c-.49.89-1.49,3-2.71,3a1.5,1.5,0,0,0,0,3c3.26,0,5.12-3.91,6.26-6.42,1.06-2.32,1.93-4.73,2.81-7.13,2-5.57,3.89-11.2,5.74-16.84,4.25-13,8.29-26.06,12.27-39.13q2.36-7.71,4.67-15.43a1.51,1.51,0,0,0-1.45-1.9l-54.49.31a1.52,1.52,0,0,0-1.45,1.9q3.54,14.45,7.17,28.89c3.31,13.21,6.64,26.43,10.24,39.57.69,2.53,1.4,5.06,2.15,7.57.94,3.14,2.21,8.15,6.08,8.61C823.64,537,823.62,534,821.72,533.73Z" transform="translate(-487.53 -98.64)"/><path class="cls-1" d="M808.85,548.61c-3.23,5-3.61,13.07,1.4,17.14a15.52,15.52,0,0,0,15,2.09c5-2,7.39-7,7.13-12.24-.23-4.79-2.28-10.07-6.39-12.83-5.91-4-13.7.75-17.17,5.84-1.09,1.6,1.51,3.1,2.59,1.51,2.35-3.45,7.84-7.36,12.18-5.28,3.4,1.64,5.17,5.9,5.67,9.43s-.27,7.94-3.62,10a12.48,12.48,0,0,1-12,.15,7.64,7.64,0,0,1-4.07-5.73,12.27,12.27,0,0,1,1.83-8.6C812.48,548.49,809.89,547,808.85,548.61Z" transform="translate(-487.53 -98.64)"/><path class="cls-1" d="M679.38,198.69c-1-.12-1.85-2.5-2.15-3.27-.49-1.24-.86-2.51-1.24-3.78q-1-3.34-1.89-6.7c-1.64-6-3.21-12-4.76-18q-5-19.23-9.71-38.5c-1-4.06-2-8.13-3-12.2l-1.45,1.9,54.5-.31-1.45-1.9q-4.63,15.44-9.4,30.83c-3.84,12.33-7.7,24.67-12,36.86-.86,2.46-1.74,4.91-2.67,7.33a37.89,37.89,0,0,1-2.12,4.73c-.48.89-1.49,3-2.7,3a1.5,1.5,0,0,0,0,3c3.25,0,5.11-3.91,6.25-6.41,1.06-2.33,1.94-4.74,2.81-7.14,2-5.57,3.9-11.2,5.74-16.84,4.25-13,8.29-26.06,12.28-39.13q2.34-7.71,4.66-15.43a1.51,1.51,0,0,0-1.44-1.9l-54.5.31a1.52,1.52,0,0,0-1.45,1.9q3.56,14.45,7.17,28.89c3.32,13.21,6.64,26.43,10.24,39.57.7,2.53,1.4,5.06,2.15,7.57.94,3.14,2.22,8.15,6.09,8.61C681.29,201.92,681.27,198.92,679.38,198.69Z" transform="translate(-487.53 -98.64)"/><path class="cls-1" d="M666.5,213.57c-3.23,5-3.61,13.07,1.4,17.14a15.53,15.53,0,0,0,15,2.09c5-2,7.38-7,7.13-12.23-.24-4.8-2.29-10.07-6.4-12.84-5.91-4-13.7.75-17.17,5.84-1.09,1.6,1.51,3.1,2.59,1.51,2.35-3.45,7.85-7.36,12.18-5.28,3.41,1.64,5.17,5.9,5.67,9.43s-.26,7.94-3.62,10a12.49,12.49,0,0,1-12,.14,7.61,7.61,0,0,1-4.08-5.73,12.3,12.3,0,0,1,1.83-8.6C670.14,213.45,667.54,211.94,666.5,213.57Z" transform="translate(-487.53 -98.64)"/><path class="cls-1" d="M1070.88,500.19c-1-.12-1.85-2.5-2.15-3.27-.49-1.24-.86-2.51-1.24-3.78q-1-3.34-1.89-6.7c-1.64-6-3.21-12-4.76-18q-5-19.23-9.71-38.5c-1-4.06-2-8.13-3-12.2l-1.45,1.9,54.5-.31-1.45-1.9q-4.63,15.44-9.4,30.83c-3.84,12.33-7.7,24.67-12,36.86-.86,2.46-1.74,4.91-2.67,7.33a37.89,37.89,0,0,1-2.12,4.73c-.48.89-1.49,3-2.7,3a1.5,1.5,0,0,0,0,3c3.25,0,5.11-3.91,6.25-6.41,1.06-2.33,1.94-4.74,2.81-7.14,2-5.57,3.9-11.2,5.74-16.84,4.25-13,8.29-26.06,12.28-39.13q2.34-7.71,4.66-15.43a1.51,1.51,0,0,0-1.44-1.9l-54.5.31a1.52,1.52,0,0,0-1.45,1.9q3.55,14.44,7.17,28.89c3.32,13.21,6.64,26.43,10.24,39.57.7,2.53,1.4,5.06,2.15,7.57.94,3.14,2.22,8.15,6.09,8.61C1072.79,503.42,1072.77,500.42,1070.88,500.19Z" transform="translate(-487.53 -98.64)"/><path class="cls-1" d="M1058,515.07c-3.23,5-3.61,13.07,1.4,17.14a15.53,15.53,0,0,0,15,2.09c5-2,7.38-7,7.13-12.23-.24-4.8-2.29-10.07-6.4-12.84-5.91-4-13.7.75-17.17,5.84-1.09,1.6,1.51,3.1,2.59,1.51,2.35-3.45,7.85-7.36,12.18-5.28,3.41,1.64,5.17,5.9,5.67,9.43s-.26,7.94-3.62,10a12.49,12.49,0,0,1-12,.14,7.61,7.61,0,0,1-4.08-5.73,12.3,12.3,0,0,1,1.83-8.6C1061.64,515,1059,513.44,1058,515.07Z" transform="translate(-487.53 -98.64)"/><path class="cls-1" d="M592.08,513.69c-1-.12-1.85-2.5-2.15-3.27-.49-1.24-.86-2.51-1.24-3.78q-1-3.34-1.89-6.7c-1.64-6-3.21-12-4.76-18q-5-19.23-9.71-38.5c-1-4.06-2-8.13-3-12.2l-1.45,1.9,54.5-.31-1.45-1.9q-4.63,15.44-9.4,30.83c-3.84,12.33-7.7,24.67-12,36.86-.86,2.46-1.74,4.91-2.67,7.33a37.89,37.89,0,0,1-2.12,4.73c-.48.89-1.49,3-2.7,3a1.5,1.5,0,0,0,0,3c3.25,0,5.11-3.91,6.25-6.41,1.06-2.33,1.94-4.74,2.81-7.14,2-5.57,3.9-11.2,5.74-16.84,4.25-13,8.29-26.06,12.28-39.13q2.34-7.71,4.66-15.43a1.51,1.51,0,0,0-1.44-1.9l-54.5.31a1.52,1.52,0,0,0-1.45,1.9q3.55,14.44,7.17,28.89c3.32,13.21,6.64,26.43,10.24,39.57.7,2.53,1.4,5.06,2.15,7.57.94,3.14,2.22,8.15,6.09,8.61C594,516.92,594,513.92,592.08,513.69Z" transform="translate(-487.53 -98.64)"/><path class="cls-1" d="M579.2,528.57c-3.23,5-3.61,13.07,1.4,17.14a15.53,15.53,0,0,0,15,2.09c5-2,7.38-7,7.13-12.23-.24-4.8-2.29-10.07-6.4-12.84-5.91-4-13.7.75-17.17,5.84-1.09,1.6,1.51,3.1,2.59,1.51,2.35-3.45,7.85-7.36,12.18-5.28,3.41,1.64,5.17,5.9,5.67,9.43s-.26,7.94-3.62,10a12.49,12.49,0,0,1-12,.14,7.61,7.61,0,0,1-4.08-5.73,12.3,12.3,0,0,1,1.83-8.6C582.84,528.45,580.24,526.94,579.2,528.57Z" transform="translate(-487.53 -98.64)"/><path class="cls-1" d="M1130.28,367.89c-1-.12-1.85-2.5-2.15-3.27-.49-1.24-.86-2.51-1.24-3.78q-1-3.34-1.89-6.7c-1.64-6-3.21-12-4.76-18q-5-19.23-9.71-38.5c-1-4.06-2-8.13-3-12.2l-1.45,1.9,54.5-.31-1.45-1.9q-4.64,15.44-9.4,30.83c-3.84,12.33-7.7,24.67-12,36.86-.86,2.46-1.74,4.91-2.67,7.33a37.89,37.89,0,0,1-2.12,4.73c-.48.89-1.49,3-2.7,3a1.5,1.5,0,0,0,0,3c3.25,0,5.11-3.91,6.25-6.41,1.06-2.33,1.94-4.74,2.81-7.14,2-5.57,3.9-11.2,5.74-16.84,4.25-13,8.29-26.06,12.28-39.13q2.34-7.71,4.66-15.43a1.51,1.51,0,0,0-1.44-1.9l-54.5.31a1.52,1.52,0,0,0-1.45,1.9q3.55,14.44,7.17,28.89c3.32,13.21,6.64,26.43,10.24,39.57.7,2.53,1.4,5.06,2.15,7.57.94,3.14,2.22,8.15,6.09,8.61C1132.19,371.12,1132.17,368.12,1130.28,367.89Z" transform="translate(-487.53 -98.64)"/><path class="cls-1" d="M1117.4,382.77c-3.23,5-3.61,13.07,1.4,17.14a15.53,15.53,0,0,0,15,2.09c5-2,7.38-7,7.13-12.23-.24-4.8-2.29-10.07-6.4-12.84-5.91-4-13.7.75-17.17,5.84-1.09,1.6,1.51,3.1,2.59,1.51,2.35-3.45,7.85-7.36,12.18-5.28,3.41,1.64,5.17,5.9,5.67,9.43s-.26,7.94-3.62,10a12.49,12.49,0,0,1-12,.14,7.61,7.61,0,0,1-4.08-5.73,12.3,12.3,0,0,1,1.83-8.6C1121,382.65,1118.44,381.14,1117.4,382.77Z" transform="translate(-487.53 -98.64)"/><path class="cls-1" d="M1021.38,182.49c-1-.12-1.85-2.5-2.15-3.27-.49-1.24-.86-2.51-1.24-3.78q-1-3.34-1.89-6.7c-1.64-6-3.21-12-4.76-18q-5-19.23-9.71-38.5c-1-4.06-2-8.13-3-12.2l-1.45,1.9,54.5-.31-1.45-1.9q-4.63,15.44-9.4,30.83c-3.84,12.33-7.7,24.67-12,36.86-.86,2.46-1.74,4.91-2.67,7.33a37.89,37.89,0,0,1-2.12,4.73c-.48.89-1.49,3-2.7,3a1.5,1.5,0,0,0,0,3c3.25,0,5.11-3.91,6.25-6.41,1.06-2.33,1.94-4.74,2.81-7.14,2-5.57,3.9-11.2,5.74-16.84,4.25-13,8.29-26.06,12.28-39.13q2.34-7.71,4.66-15.43a1.51,1.51,0,0,0-1.44-1.9l-54.5.31a1.52,1.52,0,0,0-1.45,1.9q3.56,14.45,7.17,28.89c3.32,13.21,6.64,26.43,10.24,39.57.7,2.53,1.4,5.06,2.15,7.57.94,3.14,2.22,8.15,6.09,8.61C1023.29,185.72,1023.27,182.72,1021.38,182.49Z" transform="translate(-487.53 -98.64)"/><path class="cls-1" d="M1008.5,197.37c-3.23,5-3.61,13.07,1.4,17.14a15.53,15.53,0,0,0,15,2.09c5-2,7.38-7,7.13-12.23-.24-4.8-2.29-10.07-6.4-12.84-5.91-4-13.7.75-17.17,5.84-1.09,1.6,1.51,3.1,2.59,1.51,2.35-3.45,7.85-7.36,12.18-5.28,3.41,1.64,5.17,5.9,5.67,9.43s-.26,7.94-3.62,10a12.49,12.49,0,0,1-12,.14,7.61,7.61,0,0,1-4.08-5.73,12.3,12.3,0,0,1,1.83-8.6C1012.14,197.25,1009.54,195.74,1008.5,197.37Z" transform="translate(-487.53 -98.64)"/></svg>